<svg width="640" height="57" viewBox="0 0 640 57" fill="none" xmlns="http://www.w3.org/2000/svg">
<g opacity="0.5">
<path d="M87.0153 42.8449C97.8783 41.1337 105.297 30.9404 103.586 20.0775C101.875 9.21456 91.6817 1.79559 80.8187 3.50673C69.9558 5.21788 62.5368 15.4112 64.248 26.2741C65.9591 37.137 76.1524 44.556 87.0153 42.8449Z" fill="#99D3E0"/>
</g>
<g opacity="0.5">
<path d="M42.4819 -10.1106C42.6879 0.884399 33.9419 9.9654 22.9469 10.1704C11.9519 10.3764 2.87094 1.6304 2.66494 -9.3646C2.45894 -20.3596 11.2049 -29.4406 22.1999 -29.6456C33.1949 -29.8516 42.2759 -21.1056 42.4819 -10.1106Z" fill="#F2B15C"/>
</g>
<g opacity="0.5">
<path d="M160.157 12.5393C166.763 3.74711 164.99 -8.73555 156.198 -15.3415C147.406 -21.9475 134.923 -20.1752 128.317 -11.383C121.711 -2.59082 123.484 9.89183 132.276 16.4978C141.068 23.1037 153.551 21.3315 160.157 12.5393Z" fill="#EC442E"/>
</g>
<g opacity="0.5">
<path d="M241.545 30.127C249.321 22.351 249.321 9.74347 241.545 1.96742C233.769 -5.80862 221.161 -5.8086 213.385 1.96744C205.609 9.74349 205.609 22.3509 213.385 30.127C221.161 37.903 233.769 37.903 241.545 30.127Z" fill="#D0E28F"/>
</g>
<g opacity="0.5">
<path d="M312.238 -1.0946C312.444 9.9004 303.698 18.9814 292.703 19.1874C281.708 19.3934 272.627 10.6474 272.421 -0.347593C272.215 -11.3426 280.961 -20.4236 291.956 -20.6286C302.952 -20.8366 312.032 -12.0896 312.238 -1.0946Z" fill="#FFEE58"/>
</g>
<g opacity="0.5">
<path d="M427.172 12.4416C436.687 6.92875 439.932 -5.25434 434.42 -14.7701C428.907 -24.2859 416.724 -27.531 407.208 -22.0181C397.692 -16.5053 394.447 -4.32214 399.96 5.19364C405.473 14.7094 417.656 17.9544 427.172 12.4416Z" fill="#99D3E0"/>
</g>
<g opacity="0.5">
<path d="M369.618 42.4409C377.538 34.8122 377.774 22.2074 370.146 14.2873C362.517 6.36719 349.912 6.13097 341.992 13.7597C334.072 21.3883 333.836 33.9931 341.464 41.9132C349.093 49.8333 361.698 50.0696 369.618 42.4409Z" fill="#F2B15C"/>
</g>
<g opacity="0.5">
<path d="M490.75 32.6469C498.962 25.3328 499.691 12.7458 492.376 4.53319C485.062 -3.67944 472.475 -4.40779 464.263 2.90638C456.05 10.2205 455.322 22.8075 462.636 31.0201C469.95 39.2327 482.537 39.9611 490.75 32.6469Z" fill="#EC442E"/>
</g>
<g opacity="0.5">
<path d="M569.297 20.3191C579.231 15.6025 583.461 3.72512 578.745 -6.20966C574.028 -16.1444 562.151 -20.3745 552.216 -15.6579C542.281 -10.9412 538.051 0.936069 542.768 10.8708C547.484 20.8056 559.362 25.0358 569.297 20.3191Z" fill="#D0E28F"/>
</g>
<g opacity="0.5">
<path d="M638.709 34.0443C646.986 26.8038 647.827 14.224 640.587 5.94645C633.346 -2.33106 620.766 -3.17174 612.489 4.06875C604.211 11.3092 603.371 23.889 610.611 32.1666C617.852 40.4441 630.431 41.2848 638.709 34.0443Z" fill="#FFEE58"/>
</g>
<path d="M664.804 14.5564C660.195 17.4144 654.122 16.0664 650.149 13.4614C646.861 11.3064 644.281 8.19941 642.149 4.99641C643.065 4.06641 643.864 3.04741 644.51 1.96241C646.361 -1.14559 646.743 -4.41558 645.616 -7.49358C644.693 -10.0136 642.988 -11.4276 640.815 -11.4766C640.808 -11.4766 640.802 -11.4766 640.795 -11.4766C638.482 -11.5206 636.37 -9.99258 635.535 -7.67058C634.23 -4.03958 635.915 -0.621589 637.596 2.29841C638.022 3.03941 638.468 3.79341 638.935 4.55241C636.758 6.26741 634.082 7.4864 631.412 7.8784C626.49 8.6024 621.604 7.6914 616.434 6.7284C613.762 6.2304 610.999 5.71543 608.245 5.45143C601.175 4.77542 596.152 6.5784 593.624 10.6764C590.888 9.8854 588.03 9.34041 585.07 9.04841C578.133 8.36341 571.115 8.49642 564.209 9.44242C560.888 9.89742 557.463 10.5404 554.15 11.1614C542.459 13.3534 530.369 15.6204 520.301 10.1994C520.166 10.1264 520.018 10.0444 519.86 9.95341C519.862 9.95141 519.864 9.95041 519.866 9.9484C523.401 7.1424 525.296 3.68141 525.202 0.20341C525.13 -2.45759 523.824 -4.81958 521.71 -6.11358C519.604 -7.40258 517.159 -7.3636 515.002 -6.0086C512.342 -4.3366 510.699 -1.0496 511.005 1.9864C511.296 4.8704 512.889 7.6244 515.509 9.8964C505.606 15.3864 492.728 11.9694 485.54 9.2404C482.461 8.0714 479.354 6.70841 476.349 5.38941C467.746 1.61441 458.848 -2.27359 449.135 -2.35259C447.135 -2.36559 445.233 -1.91358 443.635 -1.04558C443.576 -1.01358 443.518 -0.981598 443.461 -0.948598C434.809 -3.1736 425.232 -1.85758 417.626 2.87242C414.677 4.70642 412.031 7.00442 409.471 9.22642C406.047 12.1994 402.813 15.0084 398.909 16.8134C391.443 20.2674 382.282 18.8404 375.727 14.0184C378.216 11.4084 379.646 8.00841 379.56 4.88941C379.494 2.46941 378.514 0.323421 376.727 -1.31658C375.297 -2.62858 373.402 -3.28659 371.525 -3.12359C369.736 -2.96759 368.149 -2.09459 367.054 -0.666585C364.526 2.63142 366.513 6.5004 367.166 7.7714C368.386 10.1474 370.02 12.2574 371.946 14.0594C367.088 17.6304 359.914 18.7074 353.281 16.6964C349.165 15.4484 343.498 11.1524 339.548 7.71742C339.503 7.67842 339.463 7.6414 339.418 7.6024L339.425 7.59342C339.153 7.38042 338.902 7.1404 338.644 6.9094C338.277 6.5734 337.937 6.25141 337.62 5.94541C337.387 5.71241 337.156 5.48542 336.919 5.24342C335.747 4.04442 334.49 2.76442 332.836 1.71742L332.844 1.70442C327.05 -2.06258 320.163 -0.201585 315.535 2.83342C312.006 5.14642 309.268 8.38343 307.021 11.7144C304.553 9.81443 301.561 8.48741 298.51 8.03941C293.178 7.25641 287.863 8.24742 282.72 9.20542C280.101 9.69342 277.393 10.1984 274.748 10.4514C270.652 10.8444 265.473 10.4814 262.813 6.89741C264.622 6.25841 266.373 5.50541 268.058 4.6424C273.05 2.0834 274.722 -2.14059 274.635 -4.98159C274.57 -7.13159 273.53 -8.85358 271.854 -9.58858C270.461 -10.1996 267.42 -10.6146 262.716 -6.5346C259.241 -3.5206 257.929 1.2434 259.305 5.4174C256.826 6.1104 254.24 6.59042 251.565 6.85542C244.821 7.52142 237.997 7.39242 231.282 6.47242C228.022 6.02542 224.627 5.38942 221.343 4.77342C209.23 2.50142 196.704 0.152412 185.868 5.98841C185.354 6.26541 184.863 6.55541 184.392 6.85942C173.501 0.123415 159.241 3.83541 151.402 6.81141C148.265 8.00241 145.128 9.37842 142.095 10.7094C133.721 14.3844 125.05 18.1794 115.857 18.2434C115.214 18.2474 114.586 18.1924 113.985 18.0814C114.875 17.7304 115.749 17.3384 116.604 16.9064C120.061 15.1574 124.485 12.0214 125.927 7.0174C126.691 4.3674 126.277 1.3444 124.822 -1.0696C123.618 -3.0656 121.818 -4.40159 119.753 -4.83059C114.264 -5.97259 109.576 -0.906575 107.365 4.61942C105.225 9.96742 105.416 14.4204 107.808 17.3234C100.283 18.7904 92.191 17.4504 85.667 13.3924C82.885 11.6624 80.313 9.42943 77.827 7.27043C74.424 4.31443 70.905 1.25941 66.683 -0.693593C58.27 -4.58559 47.914 -2.89158 40.622 2.66542C35.11 -1.69958 27.006 -3.0336 19.305 -0.698598C12.54 1.3524 6.045 6.03541 0 13.2204L1.889 14.8094C7.621 7.9954 13.721 3.5724 20.021 1.6634C26.655 -0.347598 33.829 0.729425 38.686 4.30043C36.76 6.10242 35.126 8.21242 33.906 10.5884C33.253 11.8594 31.266 15.7274 33.794 19.0254C34.889 20.4534 36.476 21.3264 38.265 21.4824C40.142 21.6454 42.037 20.9874 43.467 19.6754C45.254 18.0364 46.233 15.8904 46.3 13.4694C46.385 10.3504 44.955 6.95041 42.467 4.34141C49.021 -0.481589 58.183 -1.9076 65.648 1.5464C69.552 3.3524 72.786 6.1604 76.21 9.1334C78.769 11.3554 81.416 13.6544 84.365 15.4874C91.971 20.2174 101.547 21.5334 110.2 19.3084C110.258 19.3414 110.316 19.3734 110.374 19.4054C111.972 20.2734 113.874 20.7254 115.874 20.7124C125.588 20.6334 134.485 16.7464 143.088 12.9704C146.093 11.6514 149.2 10.2884 152.279 9.11942C159.467 6.39042 172.345 2.97342 182.248 8.46342C179.628 10.7354 178.035 13.4904 177.744 16.3734C177.438 19.4094 179.081 22.6964 181.741 24.3684C183.897 25.7234 186.343 25.7624 188.448 24.4734C190.563 23.1794 191.869 20.8174 191.94 18.1564C192.034 14.6784 190.139 11.2174 186.604 8.41242C186.602 8.41042 186.601 8.40942 186.598 8.40742C186.757 8.31642 186.905 8.23442 187.039 8.16142C197.108 2.73942 209.197 5.00741 220.888 7.19941C224.2 7.82041 227.626 8.46341 230.947 8.91841C237.853 9.8644 244.87 9.99742 251.808 9.31242C254.768 9.01942 257.626 8.4754 260.362 7.6844C262.89 11.7824 267.913 13.5854 274.983 12.9094C277.738 12.6464 280.501 12.1304 283.172 11.6334C288.342 10.6704 293.228 9.75941 298.15 10.4834C300.82 10.8754 303.496 12.0944 305.673 13.8094C305.206 14.5684 304.76 15.3224 304.334 16.0634C302.652 18.9824 300.968 22.4014 302.273 26.0324C303.108 28.3554 305.22 29.8824 307.533 29.8394C307.54 29.8394 307.546 29.8394 307.553 29.8394C309.726 29.7904 311.431 28.3764 312.354 25.8564C313.481 22.7784 313.099 19.5084 311.248 16.4004C310.602 15.3164 309.803 14.2974 308.887 13.3664C311.019 10.1634 313.599 7.05641 316.887 4.90141C319.603 3.12041 323.342 2.03641 326.88 2.36741C330.919 2.94941 332.906 4.9744 335.002 7.1204C335.858 7.9964 336.743 8.9024 337.772 9.7064L337.785 9.69041C341.937 13.2664 348.44 17.8134 352.563 19.0634C360.264 21.3984 368.368 20.0644 373.88 15.6994C381.172 21.2554 391.528 22.9494 399.941 19.0584C404.163 17.1054 407.682 14.0494 411.085 11.0944C413.571 8.9354 416.143 6.70242 418.925 4.97242C425.449 0.914421 433.541 -0.425577 441.066 1.04142C438.675 3.94442 438.483 8.3974 440.623 13.7454C442.835 19.2714 447.522 24.3364 453.011 23.1944C455.076 22.7654 456.876 21.4294 458.08 19.4334C459.535 17.0204 459.948 13.9974 459.185 11.3464C457.743 6.34142 453.319 3.20641 449.862 1.45741C449.007 1.02441 448.133 0.63342 447.243 0.28242C447.844 0.17042 448.472 0.115402 449.115 0.120402C458.308 0.184402 466.979 3.9794 475.353 7.6544C478.386 8.9854 481.522 10.3614 484.66 11.5524C492.5 14.5284 506.759 18.2414 517.651 11.5044C518.122 11.8084 518.613 12.0984 519.127 12.3744C529.963 18.2104 542.489 15.8614 554.601 13.5894C557.884 12.9734 561.279 12.3364 564.54 11.8904C571.255 10.9704 578.079 10.8414 584.823 11.5074C587.499 11.7714 590.084 12.2524 592.563 12.9454C591.187 17.1204 592.499 21.8834 595.974 24.8974C600.678 28.9764 603.719 28.5614 605.112 27.9514C606.788 27.2174 607.828 25.4954 607.893 23.3444C607.979 20.5044 606.308 16.2794 601.316 13.7204C599.631 12.8564 597.88 12.1044 596.071 11.4654C598.73 7.8814 603.909 7.51842 608.006 7.91142C610.651 8.16442 613.359 8.66942 615.978 9.15742C621.12 10.1154 626.436 11.1064 631.768 10.3234C634.819 9.8754 637.81 8.54842 640.279 6.64842C642.526 9.97942 645.264 13.2154 648.793 15.5294C653.421 18.5644 660.568 20.0894 666.102 16.6584L664.804 14.5564ZM43.837 13.4024C43.789 15.1644 43.104 16.6624 41.803 17.8564C40.882 18.7024 39.673 19.1264 38.485 19.0234C37.395 18.9284 36.427 18.3954 35.758 17.5234C34.682 16.1194 34.793 14.2734 36.107 11.7154C37.237 9.5144 38.76 7.56841 40.558 5.91441C40.566 5.92241 40.574 5.93043 40.581 5.93843C42.658 8.06442 43.905 10.9244 43.837 13.4024ZM109.663 5.53642C111.318 1.40142 114.484 -2.4546 118.101 -2.5226C118.481 -2.5296 118.868 -2.49459 119.257 -2.41359C120.642 -2.12559 121.87 -1.19558 122.715 0.205424C123.805 2.01342 124.13 4.36242 123.562 6.33442C122.366 10.4854 118.516 13.1774 115.496 14.7054C113.935 15.4954 112.305 16.1374 110.632 16.6334C107.072 13.8474 108.448 8.57342 109.663 5.53642ZM189.478 18.0914C189.429 19.9134 188.564 21.5134 187.165 22.3694C185.506 23.3844 184.017 22.8804 183.059 22.2794C181.192 21.1064 179.992 18.7274 180.205 16.6224C180.507 13.6284 182.542 11.3604 184.443 9.8654C184.656 10.0214 184.866 10.1814 185.075 10.3474C186.761 11.6854 189.576 14.4724 189.478 18.0914ZM261.668 4.6854C260.577 1.4344 261.608 -2.2996 264.339 -4.6686C266.432 -6.4836 268.396 -7.48559 269.839 -7.51259C270.221 -7.51959 270.567 -7.45859 270.868 -7.32659C271.661 -6.97859 272.136 -6.0966 272.173 -4.9056C272.242 -2.6176 270.65 0.543422 266.937 2.44642C265.25 3.31242 263.491 4.0594 261.668 4.6854ZM309.132 17.6614C310.149 19.3684 311.131 22.0294 310.041 25.0054C309.652 26.0664 308.896 27.3384 307.502 27.3694C307.499 27.3694 307.496 27.3694 307.492 27.3694C306.238 27.3934 305.077 26.5204 304.601 25.1964C303.653 22.5584 305.009 19.8464 306.478 17.2944C306.815 16.7094 307.164 16.1154 307.526 15.5184C308.143 16.1924 308.685 16.9104 309.132 17.6614ZM373.839 12.4224C373.831 12.4304 373.823 12.4384 373.816 12.4464C372.017 10.7924 370.495 8.84643 369.364 6.64543C368.05 4.08643 367.939 2.24141 369.015 0.837413C369.683 -0.0345869 370.652 -0.56658 371.742 -0.66158C372.93 -0.76458 374.139 -0.340588 375.06 0.505412C376.361 1.69941 377.045 3.19742 377.094 4.95942C377.162 7.43742 375.915 10.2964 373.839 12.4224ZM448.752 3.65641C451.771 5.18441 455.622 7.87642 456.818 12.0274C457.386 13.9994 457.062 16.3474 455.971 18.1564C455.126 19.5574 453.898 20.4874 452.514 20.7754C452.124 20.8564 451.738 20.8914 451.358 20.8844C447.741 20.8164 444.575 16.9604 442.92 12.8254C441.705 9.78842 440.329 4.5144 443.889 1.7284C445.561 2.2244 447.191 2.86741 448.752 3.65641ZM518.331 8.01441C518.123 8.17941 517.912 8.34041 517.7 8.49641C515.8 7.00141 513.764 4.73342 513.462 1.73942C513.249 -0.36558 514.45 -2.74459 516.316 -3.91759C517.273 -4.51959 518.763 -5.02259 520.422 -4.00759C521.821 -3.15159 522.686 -1.55157 522.735 0.270427C522.833 3.88943 520.018 6.67541 518.331 8.01441ZM600.194 15.9144C603.907 17.8174 605.5 20.9784 605.43 23.2664C605.394 24.4574 604.918 25.3394 604.125 25.6874C603.824 25.8194 603.478 25.8804 603.096 25.8734C601.653 25.8464 599.689 24.8454 597.596 23.0294C594.864 20.6604 593.833 16.9264 594.925 13.6754C596.748 14.3024 598.506 15.0494 600.194 15.9144ZM639.735 1.06642C638.265 -1.48558 636.91 -4.19759 637.858 -6.83559C638.334 -8.16059 639.495 -9.0326 640.749 -9.0086C640.752 -9.0086 640.755 -9.0086 640.759 -9.0086C642.153 -8.9776 642.91 -7.70558 643.298 -6.64458C644.388 -3.66758 643.406 -1.00759 642.389 0.699412C641.942 1.45041 641.401 2.16841 640.784 2.84141C640.42 2.24541 640.071 1.65142 639.735 1.06642Z" fill="#375B1B"/>
<path d="M75.754 20.3864C75.754 20.3864 82.369 16.7364 86.016 20.2674C89.663 23.7984 89.87 26.3654 89.281 28.8744C88.691 31.3834 88.095 33.5244 83.494 34.2714C78.893 35.0184 74.57 33.6304 73.403 30.7874C72.236 27.9444 72.286 22.1404 75.754 20.3864Z" fill="#99D3E0"/>
<path d="M136.519 -8.4396C136.519 -8.4396 144.898 -12.7696 148.638 -8.9396C152.378 -5.1086 151.534 -3.38859 150.933 -0.67059C150.332 2.04741 147.59 5.3994 144.464 6.6164C140.008 8.3504 135.321 5.91242 134.122 2.83042C132.923 -0.252584 132.968 -6.5416 136.519 -8.4396Z" fill="#EC442E"/>
<path d="M20.679 -2.75558L24.131 -2.98459L26.907 -4.1886C26.907 -4.1886 29.002 2.1914 26.394 3.5564C23.786 4.9224 22.929 3.12739 22.247 1.82339C21.563 0.520395 20.679 -2.75558 20.679 -2.75558Z" fill="#CBCFD1"/>
<path d="M81.814 18.6484C81.814 18.6484 82.327 10.9034 87.105 11.1424C91.883 11.3824 91.448 14.5174 91.448 14.5174C91.448 14.5174 90.864 18.4784 89.914 20.4714C88.964 22.4644 87.66 23.1474 87.66 23.1474C87.66 23.1474 84.623 19.2534 81.814 18.6484Z" fill="#CBCFD1"/>
<path d="M143.491 7.45142L149.657 2.72739C149.657 2.72739 155.536 9.0364 152.962 12.2114C150.388 15.3864 147.883 13.4584 146.71 12.3284C145.536 11.1994 143.491 7.45142 143.491 7.45142Z" fill="#CBCFD1"/>
<path d="M224.388 11.8604C224.388 11.8604 223.461 6.2814 225.572 4.7604C227.683 3.2394 229.468 1.88939 231.65 4.15239C233.832 6.41539 232.761 10.7154 232.761 10.7154L231.649 12.8764C231.649 12.8764 226.679 11.1594 224.388 11.8604Z" fill="#CBCFD1"/>
<path d="M287.582 2.61139L291.872 3.18939L296.473 2.77441C296.473 2.77441 296.14 11.3394 292.545 12.7234C288.95 14.1074 287.224 9.86042 287.032 8.38242C286.84 6.90442 287.582 2.61139 287.582 2.61139Z" fill="#CBCFD1"/>
<path d="M78.9741 21.8374C76.8531 19.5914 73.7941 25.2554 74.9031 27.1504C75.1401 27.5554 75.4781 27.8184 75.9461 27.6354C76.6151 27.3754 76.7351 26.5674 76.8491 25.9544C76.9921 25.1824 77.2161 24.3064 77.7131 23.6794C77.9701 23.3554 78.3241 23.2044 78.6071 22.9224C78.8291 22.7014 78.8961 22.4424 79.0231 22.1724C79.0791 22.0564 79.0631 21.9324 78.9741 21.8374Z" fill="#E5E5E5"/>
<path d="M76.621 30.3234C76.691 30.5304 76.765 30.7264 76.857 30.9254C77.001 31.2364 77.37 31.3534 77.679 31.3764C77.71 31.3784 77.742 31.3814 77.773 31.3834C78.133 31.4104 78.448 31.0934 78.543 30.7744C78.553 30.7394 78.564 30.7034 78.574 30.6674C78.67 30.3424 78.546 29.9884 78.315 29.7554C78.217 29.6564 78.105 29.5734 77.998 29.4854C77.719 29.2584 77.309 29.1574 76.986 29.3744C76.687 29.5764 76.5 29.9644 76.621 30.3234Z" fill="#E5E5E5"/>
<path d="M136.833 -6.7386C135.427 -6.1266 135.052 -4.53762 134.881 -3.12062C134.711 -1.70962 134.833 0.111397 136.446 0.575397C137.02 0.740396 137.52 0.342394 137.705 -0.170606C138.011 -1.01861 137.633 -1.9186 137.687 -2.7946C137.742 -3.6776 137.974 -4.54461 138.247 -5.37761C138.495 -6.13861 137.614 -7.0786 136.833 -6.7386Z" fill="#E5E5E5"/>
<path d="M138.909 3.3074C139.006 3.4254 139.097 3.55839 139.204 3.66739C139.358 3.82339 139.576 3.94541 139.762 4.06641C140.08 4.27241 140.488 4.40139 140.865 4.27139C141.149 4.17339 141.46 3.99339 141.601 3.71539C141.739 3.44239 141.792 3.0534 141.689 2.7554C141.564 2.3934 141.32 2.1534 140.994 1.9624C140.641 1.7554 140.287 1.63541 139.889 1.54941C139.453 1.45541 138.934 1.63141 138.722 2.05041C138.496 2.49741 138.602 2.9334 138.909 3.3074Z" fill="#E5E5E5"/>
<path d="M221.294 13.8384C221.294 13.8384 229.04 9.60739 232.503 13.3614C235.966 17.1154 235.187 18.7984 234.634 21.4594C234.081 24.1194 231.548 27.3984 228.658 28.5864C224.538 30.2794 220.2 27.8874 219.088 24.8694C217.976 21.8494 218.011 15.6924 221.294 13.8384Z" fill="#D0E28F"/>
<path d="M294.935 -13.4636C294.935 -13.4636 303.33 -10.1926 301.577 -2.7526C300.405 2.2184 298.595 1.96941 296.002 2.78341C293.41 3.59741 288.096 2.1014 285.649 0.157402C282.162 -2.6136 282.135 -7.5676 284.228 -10.0106C286.323 -12.4546 291.716 -15.4256 294.935 -13.4636Z" fill="#FFEE58"/>
<path d="M222.402 16.7734C222.548 16.6994 222.057 16.8114 221.979 16.8374C221.671 16.9394 221.434 17.1384 221.216 17.3704C220.791 17.8234 220.529 18.3684 220.367 18.9644C220.078 20.0324 219.976 21.5764 220.652 22.5124C221.555 23.7644 223.393 23.2314 223.483 21.6884C223.525 20.9654 223.236 20.3364 223.396 19.6004C223.471 19.2554 223.561 18.9174 223.619 18.5684C223.658 18.3374 223.673 18.1424 223.659 17.9114C223.657 17.8204 223.638 17.7344 223.602 17.6524C223.56 17.5374 223.562 17.5414 223.609 17.6654C223.815 16.9384 222.999 16.4714 222.402 16.7734Z" fill="#E5E5E5"/>
<path d="M223.608 24.8864C223.75 25.1094 223.881 25.3264 224.099 25.4884C224.338 25.6664 224.61 25.7464 224.896 25.8184C225.482 25.9664 226.087 25.6454 226.308 25.0924C226.523 24.5544 226.323 23.8694 225.785 23.5924C225.521 23.4564 225.266 23.3304 224.967 23.2964C224.691 23.2644 224.438 23.3384 224.175 23.4144C223.567 23.5894 223.263 24.3464 223.608 24.8864Z" fill="#E5E5E5"/>
<path d="M25.1661 4.7724C25.1611 4.7724 25.1571 4.7724 25.1521 4.7724C23.9161 4.7894 22.7691 4.04039 21.7451 2.54739C20.5061 0.740394 19.7031 -1.36358 19.4231 -3.53558L20.8921 -3.72559C21.1421 -1.78459 21.8601 0.0953884 22.9671 1.71039C23.4661 2.43839 24.2471 3.30439 25.1321 3.29239C25.1341 3.29239 25.1361 3.29239 25.1381 3.29239C25.7721 3.28039 26.4411 2.76041 26.7661 2.02441C27.1341 1.19141 27.1091 0.186396 27.0451 -0.594604C26.9341 -1.9476 26.6571 -3.2846 26.2211 -4.5686L27.6231 -5.04559C28.0991 -3.64659 28.4011 -2.1896 28.5211 -0.7146C28.5991 0.2414 28.6241 1.48441 28.1201 2.62341C27.5621 3.88741 26.3761 4.7494 25.1661 4.7724Z" fill="#424242"/>
<path d="M88.2349 23.5474L87.3059 22.3944C88.9649 21.0584 89.7509 20.0144 90.0179 18.7904C90.2959 17.5134 90.5839 16.1944 90.5879 14.9014C90.5899 14.2824 90.5219 13.8124 90.3749 13.4234C89.9349 12.2614 88.5059 11.4824 87.1269 11.6504C85.8109 11.8094 84.5469 12.7084 83.7469 14.0534C83.0579 15.2114 82.6889 16.6544 82.6189 18.4674L81.1389 18.4094C81.2189 16.3444 81.6559 14.6714 82.4739 13.2964C83.5079 11.5594 85.1809 10.3944 86.9489 10.1804C89.0069 9.93038 91.0789 11.0994 91.7599 12.8994C91.9739 13.4634 92.0719 14.1014 92.0689 14.9074C92.0639 16.3574 91.7599 17.7554 91.4649 19.1064C91.1199 20.6914 90.1839 21.9784 88.2349 23.5474Z" fill="#424242"/>
<path d="M81.603 35.9494C80.479 35.9704 79.285 35.7974 78.071 35.4234C76.697 34.9994 74.211 33.4534 73.388 31.1094C72.837 29.5394 72.2991 27.8604 72.3001 26.1004C72.3011 24.1314 72.9311 22.3484 74.0741 21.0784C75.4191 19.5844 77.3801 18.9104 78.7381 18.5344C79.4961 18.3244 80.399 18.1124 81.343 18.1294C83.363 18.1684 85.0141 19.2244 86.0441 20.1044C86.8981 20.8344 87.62 21.6764 88.288 22.5394L88.338 22.4974C90.127 24.6434 90.5691 26.9144 89.7291 29.6424C89.1091 31.6554 87.239 33.4974 86.463 34.1954C85.22 35.3154 83.514 35.9134 81.603 35.9494ZM81.147 19.6084C80.448 19.6214 79.742 19.7914 79.135 19.9594C77.955 20.2864 76.262 20.8604 75.176 22.0674C74.278 23.0654 73.783 24.4974 73.782 26.1004C73.781 27.6274 74.278 29.1694 74.786 30.6184C75.446 32.4984 77.6191 33.7324 78.509 34.0074C81.285 34.8644 83.8891 34.5224 85.4751 33.0934C86.9001 31.8104 87.962 30.3564 88.317 29.2054C88.848 27.4804 88.765 26.0274 88.028 24.6504L88.024 24.6534C87.135 23.4454 86.2151 22.1954 85.0851 21.2294C83.8891 20.2074 82.551 19.6324 81.318 19.6084C81.26 19.6074 81.203 19.6074 81.147 19.6084Z" fill="#424242"/>
<path d="M150.125 14.3594C149.051 14.3794 147.894 13.9584 146.738 13.1204C144.635 11.5954 143.111 9.26541 142.558 6.72641L144.005 6.41141C144.482 8.59941 145.795 10.6074 147.607 11.9214C148.352 12.4624 149.466 13.0604 150.532 12.8294C151.516 12.6184 152.356 11.6554 152.576 10.4864C152.825 9.16039 152.337 7.82741 151.885 6.94241C151.507 6.20241 150.705 5.19441 149.998 4.30441C149.596 3.79841 149.216 3.31941 148.924 2.90741L150.134 2.05341C150.401 2.43141 150.768 2.89342 151.157 3.38242C151.907 4.32642 152.757 5.39639 153.203 6.2674C154.003 7.8314 154.289 9.38439 154.031 10.7584C153.699 12.5254 152.417 13.9394 150.842 14.2764C150.608 14.3274 150.369 14.3554 150.125 14.3594Z" fill="#424242"/>
<path d="M142.056 7.9554C141.849 7.9594 141.644 7.95339 141.441 7.93639C140.488 7.85939 139.513 7.56738 138.372 7.01738C136.345 6.04038 134.839 4.69239 134.017 3.11839C132.086 -0.579606 131.908 -3.76262 133.486 -6.34462C135.738 -10.0266 140.931 -11.2356 142.968 -11.2126C145.636 -11.1906 149.214 -9.90861 150.593 -7.57661C152.054 -5.10361 153.13 0.678392 150.041 3.02339C149.074 4.15939 148.049 5.28838 146.805 6.20238C145.29 7.31538 143.626 7.9254 142.056 7.9554ZM142.853 -9.73161C141.246 -9.70161 136.67 -8.71162 134.75 -5.57262C133.461 -3.46562 133.656 -0.772617 135.33 2.43138C136.18 4.06038 137.803 5.09839 139.015 5.68239C139.986 6.15039 140.795 6.3974 141.561 6.4594C142.949 6.5744 144.5 6.0574 145.928 5.0074C147.269 4.0224 148.384 2.6954 149.463 1.4124L149.541 1.47838C151.303 -0.484621 150.477 -4.86262 149.318 -6.82362C148.271 -8.59662 145.2 -9.71362 142.957 -9.73262C142.923 -9.73262 142.889 -9.73261 142.853 -9.73161Z" fill="#424242"/>
<path d="M232.651 12.8894L231.267 12.3624C231.807 10.9444 232.365 9.47741 232.404 7.98841C232.435 6.79041 232.044 5.22942 230.852 4.44242C230.111 3.95342 229.106 3.81841 228.158 4.08341C227.268 4.33241 226.419 4.9274 225.768 5.7584C225.386 6.2464 225.136 6.73241 225.026 7.20341C224.902 7.73541 224.935 8.3354 224.966 8.9174C225.008 9.6844 225.088 11.0794 225.133 11.8454L223.654 11.9314C223.609 11.1634 223.529 9.76642 223.487 8.99742C223.451 8.34442 223.411 7.6044 223.583 6.8664C223.742 6.1844 224.085 5.50441 224.602 4.84541C225.446 3.76841 226.567 2.99142 227.758 2.65742C229.113 2.27942 230.574 2.4834 231.668 3.2064C233.087 4.1454 233.936 5.99141 233.883 8.02641C233.839 9.76841 233.207 11.4264 232.651 12.8894Z" fill="#424242"/>
<path d="M226.857 29.4914C226.709 29.4944 226.562 29.4934 226.414 29.4884C222.386 29.3514 218.719 26.1904 218.065 22.2934C217.813 20.7914 217.995 19.2864 218.153 18.2844C218.382 16.8354 218.806 14.9954 220.056 13.6214C221.21 12.3534 222.993 11.5744 225.354 11.3074C228.127 10.9974 230.599 11.4954 232.405 12.6984L232.684 12.3924C235.622 15.0674 236.781 19.4934 235.504 23.1544C234.227 26.8154 230.638 29.4204 226.857 29.4914ZM226.675 12.7034C226.22 12.7124 225.825 12.7444 225.521 12.7784C223.527 13.0034 222.057 13.6224 221.152 14.6164C220.166 15.7004 219.813 17.2694 219.616 18.5144C219.387 19.9634 219.359 21.0534 219.525 22.0464C220.067 25.2744 223.115 27.8924 226.464 28.0064C229.706 28.1144 233.004 25.8214 234.105 22.6654C235.003 20.0924 234.482 17.0714 232.861 14.8084L232.719 14.9294C231.07 12.9924 228.43 12.6704 226.675 12.7034Z" fill="#424242"/>
<path d="M291.666 13.4814C289.978 13.5134 288.253 12.4484 287.306 10.7264C286.371 9.02641 286.268 7.06241 286.291 5.36441C286.304 4.44441 286.355 3.3814 286.807 2.4104L288.15 3.03641C287.821 3.74141 287.782 4.61841 287.772 5.38541C287.752 6.88841 287.836 8.6144 288.604 10.0134C289.246 11.1814 290.628 12.2274 292.026 11.9614C293.542 11.6744 294.449 10.0254 294.766 8.70041C295.196 6.89841 295.783 4.19741 296.074 2.51941L297.533 2.7724C297.223 4.5594 296.628 7.2754 296.206 9.0434C295.767 10.8824 294.51 12.9974 292.302 13.4154C292.091 13.4564 291.879 13.4774 291.666 13.4814Z" fill="#424242"/>
<path d="M292.625 3.71939C291.605 3.73839 290.615 3.68139 289.73 3.47738C286.812 2.80639 284.468 1.28339 283.13 -0.81061C281.165 -3.88661 281.536 -8.25061 284.012 -11.1856C286.295 -13.8916 290.182 -15.2476 293.917 -14.6406C296.933 -14.1496 299.561 -12.4446 300.948 -10.0796C302.682 -7.12059 303.241 -1.88459 301.122 1.41641C300.476 2.42141 299.475 2.89841 298.271 3.16241L298.278 3.2604C297.859 3.28741 297.411 3.32839 296.943 3.37439C296.681 3.40539 296.414 3.43139 296.141 3.45639C295.007 3.57539 293.797 3.69739 292.625 3.71939ZM291.94 -13.3016C289.293 -13.2516 286.748 -12.1316 285.144 -10.2306C283.109 -7.81759 282.78 -4.11061 284.379 -1.60761C285.506 0.157393 287.524 1.45039 290.062 2.03439C291.751 2.42239 294.049 2.1844 296.076 1.9754C296.297 1.9524 296.515 1.92941 296.73 1.90841C298.39 1.71541 299.363 1.4144 299.875 0.617399C301.634 -2.1216 301.189 -6.73759 299.67 -9.32959C298.505 -11.3186 296.265 -12.7566 293.68 -13.1776C293.101 -13.2716 292.518 -13.3116 291.94 -13.3016Z" fill="#424242"/>
<path d="M21.14 -0.3076C22.503 0.8174 25.745 0.456386 27.183 -0.378614C27.836 -0.757614 27.339 -1.63161 26.68 -1.51161C25.693 -1.33161 24.803 -0.968621 23.779 -0.922621C22.945 -0.884621 22.112 -1.15061 21.3 -0.968611C21.023 -0.905611 20.918 -0.4916 21.14 -0.3076Z" fill="#424242"/>
<path d="M22.717 1.91542C23.71 2.25442 24.477 2.2364 25.523 2.1244C26.332 2.0384 27.272 2.06542 27.863 1.45942C28.131 1.18542 27.974 0.76041 27.633 0.65141C26.829 0.39341 25.968 0.850405 25.166 1.0214C24.275 1.2114 23.521 1.3694 22.692 1.7454C22.612 1.7834 22.65 1.89242 22.717 1.91542Z" fill="#424242"/>
<path d="M82.527 15.6534C84.196 16.8144 87.711 16.9724 88.458 19.1834C88.619 19.6604 89.359 19.8194 89.603 19.3114C90.278 17.9044 88.642 17.0664 87.575 16.5774C86.137 15.9174 84.165 15.0324 82.566 15.3144C82.391 15.3454 82.413 15.5744 82.527 15.6534Z" fill="#424242"/>
<path d="M84.2731 13.0174C84.8471 13.6434 85.9611 13.8164 86.7081 14.2194C87.5311 14.6644 88.2291 15.3474 89.1541 15.5684C89.5031 15.6514 89.8601 15.3184 89.7401 14.9594C89.3771 13.8664 88.3021 13.2904 87.2961 12.8634C86.4561 12.5074 85.1971 12.0074 84.3331 12.4714C84.1251 12.5824 84.1301 12.8614 84.2731 13.0174Z" fill="#424242"/>
<path d="M145.109 9.7994C146.451 10.0304 148.211 8.95541 149.325 8.28341C150.352 7.66241 152.258 6.62238 152.292 5.29638C152.298 5.05038 152.062 4.8324 151.821 4.8424C151.245 4.8664 151.072 5.0174 150.66 5.3974C150.003 6.0034 149.321 6.55941 148.584 7.06741C147.98 7.48341 147.361 7.86939 146.71 8.20739C146.072 8.53839 145.435 8.69241 144.946 9.22241C144.78 9.40141 144.842 9.7534 145.109 9.7994Z" fill="#424242"/>
<path d="M147.051 11.9174C147.406 11.9034 147.806 11.9314 148.152 11.8434C148.566 11.7384 149.016 11.4704 149.398 11.2854C150.116 10.9384 151.009 10.5154 151.256 9.7074C151.36 9.3674 151.061 9.04539 150.73 9.04339C149.967 9.03839 149.325 9.68441 148.757 10.1364C148.43 10.3964 148.043 10.6324 147.742 10.9204C147.462 11.1874 147.253 11.5304 147.016 11.8384C146.994 11.8684 147.008 11.9194 147.051 11.9174Z" fill="#424242"/>
<path d="M224.862 9.98141C224.732 10.1074 225.546 10.1204 225.735 10.1254C226.443 10.1424 227.139 10.1244 227.847 10.1884C228.884 10.2824 230.092 10.9324 231.067 10.4344C231.272 10.3294 231.317 10.0834 231.28 9.88141C230.989 8.30841 228.4 8.34541 227.184 8.43741C226.214 8.51041 224.357 8.4304 224.266 9.7474C224.243 10.0644 224.663 10.1754 224.862 9.98141Z" fill="#424242"/>
<path d="M225.324 6.80939C226.22 6.58639 227.135 6.48642 228.057 6.57142C228.928 6.65142 229.505 6.81842 230.364 6.55442C230.735 6.44042 230.8 6.00841 230.563 5.73841C229.26 4.25041 226.571 4.85242 224.914 5.42542C224.038 5.72842 224.42 7.03439 225.324 6.80939Z" fill="#424242"/>
<path d="M287.702 5.01839C288.802 5.73539 289.947 6.2714 291.238 6.5334C292.252 6.7394 293.55 7.03338 294.471 6.47438C294.752 6.30338 294.777 5.8254 294.456 5.6754C293.562 5.2584 292.526 5.46237 291.556 5.29237C290.382 5.08637 289.229 4.72237 288.155 4.21037C287.614 3.95437 287.202 4.69339 287.702 5.01839Z" fill="#424242"/>
<path d="M287.295 8.74138C288.172 9.40738 289.191 9.8604 290.245 10.1784C291.259 10.4844 292.333 10.9444 293.211 10.1744C293.486 9.9334 293.466 9.5134 293.316 9.2184C292.855 8.3084 291.661 8.3204 290.768 8.1314C289.762 7.9194 288.731 7.72038 287.701 7.70638C287.216 7.69938 286.871 8.41938 287.295 8.74138Z" fill="#424242"/>
<path d="M350.113 37.5044C350.113 37.5044 356.949 41.5824 360.727 37.6214C364.505 33.6594 364.723 30.7834 364.117 27.9744C363.511 25.1654 362.898 22.7664 358.14 21.9374C353.382 21.1074 348.909 22.6694 347.697 25.8564C346.486 29.0414 346.528 35.5444 350.113 37.5044Z" fill="#F2B15C"/>
<path d="M409.011 -2.0246C409.011 -2.0246 415.626 1.62539 419.273 -1.90561C422.92 -5.43661 423.127 -8.00361 422.538 -10.5126C421.948 -13.0216 421.352 -15.1626 416.751 -15.9096C412.15 -16.6566 407.827 -15.2686 406.66 -12.4256C405.492 -9.5836 405.542 -3.7796 409.011 -2.0246Z" fill="#99D3E0"/>
<path d="M469.776 26.8004C469.776 26.8004 478.155 31.1304 481.895 27.3004C485.635 23.4694 484.791 21.7494 484.19 19.0314C483.589 16.3134 480.847 12.9614 477.721 11.7444C473.265 10.0104 468.578 12.4484 467.379 15.5304C466.179 18.6134 466.225 24.9034 469.776 26.8004Z" fill="#EC442E"/>
<path d="M353.935 21.1164L357.387 21.3454L360.162 22.5494C360.162 22.5494 362.257 16.1694 359.649 14.8044C357.041 13.4384 356.185 15.2334 355.502 16.5374C354.82 17.8414 353.935 21.1164 353.935 21.1164Z" fill="#CBCFD1"/>
<path d="M415.071 -0.286591C415.071 -0.286591 415.584 7.45839 420.362 7.21939C425.14 6.97939 424.705 3.84439 424.705 3.84439C424.705 3.84439 424.121 -0.116589 423.171 -2.10959C422.221 -4.10259 420.917 -4.78558 420.917 -4.78558C420.917 -4.78558 417.88 -0.892591 415.071 -0.286591Z" fill="#CBCFD1"/>
<path d="M476.747 10.9094L482.913 15.6334C482.913 15.6334 488.792 9.32443 486.218 6.14943C483.644 2.97343 481.139 4.90242 479.966 6.03242C478.793 7.16242 476.747 10.9094 476.747 10.9094Z" fill="#CBCFD1"/>
<path d="M557.644 6.5004C557.644 6.5004 556.717 12.0794 558.828 13.6004C560.939 15.1214 562.724 16.4714 564.906 14.2084C567.088 11.9454 566.017 7.64542 566.017 7.64542L564.905 5.48541C564.905 5.48541 559.935 7.2014 557.644 6.5004Z" fill="#CBCFD1"/>
<path d="M620.839 15.7494L625.129 15.1714L629.73 15.5864C629.73 15.5864 629.397 7.0214 625.802 5.6374C622.207 4.2534 620.481 8.50041 620.289 9.97841C620.096 11.4564 620.839 15.7494 620.839 15.7494Z" fill="#CBCFD1"/>
<path d="M350.581 35.2094C349.572 34.3504 348.829 33.3004 348.458 32.0214C348.203 31.1424 347.751 29.2554 348.733 28.6594C349.771 28.0304 350.063 29.4264 350.129 30.1264C350.263 31.5524 350.86 32.9494 351.816 34.0194C352.565 34.8574 351.41 35.9154 350.581 35.2094Z" fill="#E5E5E5"/>
<path d="M350.039 25.6344C350.049 25.6264 350.125 25.5514 350.131 25.5534C350.106 25.5464 349.93 25.7834 350.159 25.4984C350.209 25.4174 350.275 25.3534 350.357 25.3074C350.488 25.2094 350.506 25.1964 350.411 25.2684C350.276 25.3584 350.415 25.2524 350.444 25.2204C350.734 24.8964 351.335 24.8444 351.691 25.0834C352.077 25.3424 352.264 25.7964 352.141 26.2514C352.048 26.5964 351.849 26.9414 351.529 27.1204C351.284 27.2574 350.97 27.3144 350.694 27.3064C350.304 27.2944 349.961 27.0514 349.817 26.6924C349.685 26.3594 349.738 25.8744 350.039 25.6344Z" fill="#E5E5E5"/>
<path d="M470.089 25.1004C468.683 24.4884 468.308 22.8994 468.137 21.4824C467.967 20.0714 468.089 18.2504 469.702 17.7864C470.277 17.6214 470.776 18.0194 470.961 18.5324C471.267 19.3804 470.889 20.2804 470.943 21.1564C470.998 22.0394 471.23 22.9064 471.503 23.7394C471.751 24.4994 470.87 25.4404 470.089 25.1004Z" fill="#E5E5E5"/>
<path d="M472.166 15.0534C472.263 14.9354 472.354 14.8024 472.461 14.6934C472.615 14.5374 472.833 14.4154 473.019 14.2944C473.337 14.0884 473.745 13.9594 474.122 14.0894C474.406 14.1874 474.717 14.3674 474.858 14.6454C474.996 14.9184 475.049 15.3084 474.946 15.6054C474.821 15.9674 474.577 16.2074 474.251 16.3984C473.898 16.6054 473.544 16.7254 473.146 16.8114C472.71 16.9054 472.191 16.7304 471.979 16.3114C471.753 15.8634 471.859 15.4284 472.166 15.0534Z" fill="#E5E5E5"/>
<path d="M554.551 4.52341C554.551 4.52341 562.297 8.7544 565.76 5.0004C569.223 1.2464 568.444 -0.436592 567.891 -3.09759C567.338 -5.75759 564.805 -9.03761 561.915 -10.2246C557.795 -11.9176 553.457 -9.52559 552.345 -6.50659C551.232 -3.48859 551.268 2.66941 554.551 4.52341Z" fill="#D0E28F"/>
<path d="M628.192 31.8254C628.192 31.8254 636.587 28.5544 634.834 21.1144C633.662 16.1434 631.852 16.3924 629.259 15.5784C626.667 14.7644 621.353 16.2604 618.906 18.2044C615.419 20.9754 615.392 25.9294 617.486 28.3724C619.579 30.8154 624.973 33.7874 628.192 31.8254Z" fill="#FFEE58"/>
<path d="M555.658 1.58841C555.804 1.66241 555.313 1.55042 555.235 1.52442C554.927 1.42242 554.69 1.2234 554.472 0.991399C554.047 0.538399 553.784 -0.00759506 553.623 -0.602595C553.334 -1.67059 553.232 -3.2146 553.908 -4.1506C554.811 -5.4026 556.649 -4.86959 556.739 -3.32659C556.781 -2.60359 556.492 -1.97458 556.652 -1.23858C556.727 -0.893581 556.817 -0.555599 556.875 -0.206599C556.914 0.0244012 556.929 0.219414 556.915 0.450414C556.913 0.541414 556.894 0.627417 556.858 0.709417C556.816 0.824417 556.818 0.820416 556.866 0.696416C557.072 1.42342 556.255 1.89041 555.658 1.58841Z" fill="#E5E5E5"/>
<path d="M623.427 27.9674C622.961 28.1954 622.556 28.4704 621.951 28.3624C621.356 28.2564 620.81 27.8804 620.36 27.4904C619.442 26.6954 618.675 25.0934 619.506 23.9854C619.885 23.4794 620.561 23.2734 621.126 23.6174C621.378 23.7714 621.599 24.0274 621.74 24.2834C621.859 24.4994 621.955 24.8464 622.009 24.9534C622.216 25.3674 622.34 25.6524 622.679 25.9384C622.808 26.0474 623.03 26.1794 623.174 26.3294C623.287 26.4464 623.398 26.5824 623.478 26.7254C623.513 26.7794 623.539 26.8384 623.557 26.9014C623.651 27.1164 623.615 27.0724 623.45 26.7694C623.838 27.0584 623.935 27.7184 623.427 27.9674Z" fill="#E5E5E5"/>
<path d="M621.307 20.7394C621.106 20.3064 621.074 19.8414 621.36 19.4354C621.821 18.7814 622.704 18.7984 623.141 19.4684C623.412 19.8844 623.362 20.3484 623.145 20.7734C622.793 21.4634 621.633 21.4414 621.307 20.7394Z" fill="#E5E5E5"/>
<path d="M358.423 13.5894C358.418 13.5894 358.414 13.5894 358.409 13.5894C357.172 13.5724 356.026 14.3214 355.002 15.8144C353.763 17.6214 352.96 19.7254 352.68 21.8974L354.149 22.0874C354.399 20.1464 355.116 18.2664 356.224 16.6514C356.723 15.9234 357.504 15.0574 358.389 15.0694C358.391 15.0694 358.393 15.0694 358.395 15.0694C359.029 15.0814 359.698 15.6014 360.023 16.3374C360.391 17.1704 360.366 18.1754 360.302 18.9564C360.191 20.3094 359.914 21.6464 359.478 22.9304L360.88 23.4074C361.356 22.0084 361.658 20.5514 361.778 19.0764C361.856 18.1204 361.881 16.8774 361.377 15.7384C360.818 14.4744 359.632 13.6114 358.423 13.5894Z" fill="#424242"/>
<path d="M421.492 -5.18658L420.563 -4.0336C422.222 -2.6976 423.008 -1.6536 423.275 -0.429596C423.553 0.847404 423.841 2.16641 423.845 3.45941C423.847 4.07841 423.779 4.54841 423.632 4.93741C423.192 6.09941 421.763 6.87839 420.384 6.71039C419.068 6.55139 417.804 5.6524 417.003 4.3074C416.314 3.1494 415.945 1.7064 415.875 -0.106598L414.395 -0.048584C414.476 2.01642 414.912 3.68939 415.73 5.06439C416.764 6.80139 418.436 7.96639 420.205 8.18039C422.263 8.43039 424.335 7.2614 425.016 5.4614C425.23 4.8974 425.328 4.2594 425.325 3.4534C425.32 2.0034 425.015 0.605394 424.721 -0.745605C424.376 -2.33061 423.441 -3.61758 421.492 -5.18658Z" fill="#424242"/>
<path d="M419.721 -15.8336C420.497 -15.1356 422.367 -13.2926 422.987 -11.2806C423.827 -8.55261 423.385 -6.28259 421.596 -4.13559L421.546 -4.17761C420.877 -3.31361 420.156 -2.47161 419.302 -1.74161C418.272 -0.861609 416.62 0.195396 414.601 0.233397C413.656 0.250397 412.754 0.0383968 411.996 -0.171602C410.638 -0.547602 408.677 -1.22161 407.332 -2.71561C406.189 -3.98561 405.559 -5.76961 405.558 -7.73761C405.557 -9.49761 406.094 -11.1776 406.646 -12.7466C407.469 -15.0906 409.955 -16.6366 411.329 -17.0606C412.543 -17.4356 413.737 -17.6086 414.861 -17.5866C416.771 -17.5516 418.477 -16.9546 419.721 -15.8336ZM414.573 -1.24759C415.806 -1.27059 417.144 -1.84659 418.34 -2.86859C419.47 -3.83459 420.39 -5.0836 421.279 -6.2926L421.283 -6.28961C422.02 -7.66761 422.103 -9.11961 421.572 -10.8446C421.218 -11.9966 420.155 -13.4496 418.731 -14.7326C417.145 -16.1606 414.542 -16.5026 411.765 -15.6466C410.875 -15.3716 408.703 -14.1376 408.043 -12.2576C407.534 -10.8086 407.038 -9.26659 407.039 -7.73959C407.04 -6.13759 407.535 -4.70461 408.433 -3.70761C409.519 -2.50161 411.212 -1.92661 412.392 -1.59961C412.998 -1.43161 413.705 -1.2616 414.404 -1.2486C414.46 -1.2466 414.516 -1.24659 414.573 -1.24759Z" fill="#424242"/>
<path d="M483.382 4.00141C482.308 3.98141 481.151 4.4024 479.995 5.2404C477.892 6.7654 476.368 9.09541 475.815 11.6344L477.262 11.9494C477.739 9.76141 479.052 7.7534 480.864 6.4394C481.609 5.8994 482.723 5.30041 483.789 5.53141C484.773 5.74241 485.613 6.7054 485.833 7.8744C486.082 9.2004 485.594 10.5334 485.142 11.4184C484.764 12.1584 483.962 13.1664 483.255 14.0564C482.853 14.5624 482.473 15.0404 482.181 15.4534L483.391 16.3074C483.658 15.9294 484.025 15.4674 484.414 14.9784C485.164 14.0344 486.015 12.9644 486.46 12.0934C487.26 10.5294 487.546 8.9764 487.288 7.6024C486.956 5.8354 485.674 4.42142 484.099 4.08442C483.864 4.03342 483.625 4.00641 483.382 4.00141Z" fill="#424242"/>
<path d="M480.061 12.1594C481.305 13.0734 482.33 14.2024 483.297 15.3384C486.386 17.6834 485.31 23.4654 483.849 25.9384C482.471 28.2704 478.892 29.5524 476.224 29.5744C474.188 29.5974 468.994 28.3884 466.742 24.7064C465.163 22.1244 465.342 18.9404 467.273 15.2434C468.095 13.6694 469.601 12.3214 471.628 11.3444C472.769 10.7954 473.744 10.5034 474.697 10.4254C474.9 10.4084 475.105 10.4024 475.312 10.4064C476.882 10.4354 478.546 11.0464 480.061 12.1594ZM476.213 28.0934C478.457 28.0754 481.527 26.9574 482.574 25.1844C483.732 23.2234 484.559 18.8454 482.797 16.8824L482.719 16.9484C481.641 15.6654 480.526 14.3384 479.184 13.3534C477.757 12.3044 476.206 11.7874 474.817 11.9014C474.051 11.9634 473.242 12.2104 472.271 12.6784C471.059 13.2624 469.437 14.3004 468.586 15.9294C466.913 19.1334 466.718 21.8264 468.006 23.9344C469.926 27.0734 474.502 28.0634 476.109 28.0934C476.145 28.0934 476.18 28.0934 476.213 28.0934Z" fill="#424242"/>
<path d="M565.908 5.47141L564.524 5.99841C565.063 7.41641 565.622 8.88341 565.66 10.3724C565.691 11.5704 565.3 13.1314 564.108 13.9184C563.367 14.4074 562.362 14.5424 561.414 14.2774C560.524 14.0284 559.675 13.4334 559.024 12.6024C558.642 12.1144 558.392 11.6284 558.282 11.1574C558.158 10.6254 558.191 10.0254 558.222 9.44339C558.264 8.67639 558.344 7.28141 558.389 6.51541L556.91 6.42941C556.865 7.19741 556.785 8.5944 556.743 9.3634C556.707 10.0164 556.667 10.7564 556.839 11.4944C556.998 12.1764 557.341 12.8564 557.858 13.5154C558.701 14.5924 559.822 15.3694 561.014 15.7034C562.369 16.0814 563.83 15.8774 564.924 15.1544C566.343 14.2154 567.192 12.3684 567.139 10.3344C567.095 8.59241 566.464 6.93441 565.908 5.47141Z" fill="#424242"/>
<path d="M568.761 -4.79259C570.038 -1.13159 568.879 3.29441 565.941 5.97041L565.662 5.66441C563.856 6.86741 561.384 7.3654 558.611 7.0554C556.249 6.7884 554.467 6.01041 553.313 4.74141C552.063 3.36741 551.639 1.52741 551.41 0.0784121C551.251 -0.923588 551.069 -2.42859 551.322 -3.93059C551.976 -7.82859 555.643 -10.9886 559.671 -11.1256C559.819 -11.1306 559.966 -11.1316 560.114 -11.1286C563.894 -11.0586 567.483 -8.45359 568.761 -4.79259ZM565.976 3.4304L566.118 3.5514C567.74 1.2884 568.26 -1.73259 567.362 -4.30559C566.261 -7.46159 562.963 -9.75559 559.721 -9.64659C556.372 -9.53259 553.324 -6.91457 552.782 -3.68657C552.615 -2.69257 552.643 -1.60359 552.873 -0.15459C553.071 1.09041 553.423 2.65942 554.409 3.74342C555.314 4.73842 556.784 5.3564 558.778 5.5814C559.081 5.6154 559.476 5.64841 559.932 5.65641C561.686 5.69041 564.326 5.3684 565.976 3.4304Z" fill="#424242"/>
<path d="M624.922 4.87939C623.234 4.84739 621.509 5.9124 620.562 7.6344C619.627 9.3344 619.524 11.2984 619.547 12.9964C619.56 13.9164 619.611 14.9794 620.064 15.9504L621.407 15.3244C621.078 14.6194 621.039 13.7424 621.029 12.9754C621.009 11.4724 621.092 9.74641 621.861 8.34741C622.504 7.17941 623.885 6.13241 625.283 6.39941C626.799 6.68641 627.706 8.3354 628.023 9.6604C628.453 11.4624 629.04 14.1634 629.331 15.8414L630.79 15.5884C630.48 13.8014 629.885 11.0854 629.463 9.31741C629.024 7.47841 627.767 5.3634 625.559 4.9454C625.348 4.9054 625.135 4.88339 624.922 4.87939Z" fill="#424242"/>
<path d="M629.398 14.9034C629.67 14.9284 629.938 14.9554 630.2 14.9854C630.668 15.0324 631.115 15.0724 631.535 15.0994L631.528 15.1974C632.732 15.4614 633.733 15.9374 634.379 16.9434C636.498 20.2444 635.939 25.4804 634.206 28.4394C632.82 30.8044 630.192 32.5104 627.175 33.0004C623.441 33.6074 619.553 32.2524 617.27 29.5454C614.794 26.6104 614.423 22.2464 616.388 19.1704C617.726 17.0764 620.07 15.5534 622.988 14.8824C623.873 14.6784 624.863 14.6214 625.883 14.6404C627.053 14.6634 628.264 14.7864 629.398 14.9034ZM626.936 31.5394C629.521 31.1184 631.761 29.6794 632.926 27.6914C634.445 25.0994 634.89 20.4834 633.131 17.7444C632.619 16.9464 631.646 16.6454 629.986 16.4534C629.772 16.4324 629.554 16.4094 629.332 16.3864C627.305 16.1774 625.007 15.9394 623.318 16.3274C620.78 16.9104 618.762 18.2044 617.635 19.9694C616.036 22.4724 616.365 26.1794 618.4 28.5924C620.004 30.4944 622.549 31.6144 625.196 31.6634C625.775 31.6734 626.357 31.6334 626.936 31.5394Z" fill="#424242"/>
<path d="M354.397 18.6684C355.759 17.5434 359.002 17.9044 360.44 18.7394C361.093 19.1184 360.596 19.9924 359.937 19.8724C358.95 19.6924 358.06 19.3294 357.036 19.2834C356.201 19.2454 355.369 19.5114 354.557 19.3294C354.279 19.2674 354.174 18.8524 354.397 18.6684Z" fill="#424242"/>
<path d="M355.973 16.4454C356.966 16.1064 357.733 16.1244 358.779 16.2354C359.588 16.3214 360.528 16.2944 361.119 16.9004C361.387 17.1744 361.23 17.5994 360.889 17.7084C360.085 17.9664 359.224 17.5094 358.422 17.3374C357.531 17.1474 356.777 16.9894 355.947 16.6134C355.869 16.5784 355.907 16.4684 355.973 16.4454Z" fill="#424242"/>
<path d="M415.784 2.70741C417.453 1.54641 420.968 1.38841 421.715 -0.822593C421.876 -1.29959 422.616 -1.45858 422.86 -0.950583C423.535 0.456416 421.899 1.29443 420.831 1.78343C419.393 2.44343 417.421 3.3284 415.822 3.0464C415.648 3.0154 415.669 2.78741 415.784 2.70741Z" fill="#424242"/>
<path d="M417.53 5.34438C418.104 4.71838 419.218 4.54538 419.965 4.14238C420.788 3.69738 421.486 3.01438 422.411 2.79338C422.76 2.71038 423.117 3.04239 422.997 3.40239C422.634 4.49539 421.559 5.0714 420.553 5.4984C419.714 5.8544 418.454 6.3544 417.59 5.8904C417.381 5.7794 417.387 5.49938 417.53 5.34438Z" fill="#424242"/>
<path d="M478.366 8.56139C479.708 8.33039 481.468 9.40538 482.582 10.0774C483.609 10.6984 485.515 11.7384 485.549 13.0644C485.556 13.3104 485.319 13.5284 485.078 13.5184C484.502 13.4944 484.329 13.3434 483.917 12.9634C483.26 12.3574 482.578 11.8014 481.841 11.2934C481.237 10.8774 480.618 10.4914 479.967 10.1534C479.329 9.8224 478.692 9.66839 478.203 9.13839C478.036 8.95939 478.098 8.60739 478.366 8.56139Z" fill="#424242"/>
<path d="M480.308 6.4434C480.663 6.4574 481.063 6.42941 481.409 6.51741C481.823 6.62341 482.273 6.89042 482.655 7.07542C483.373 7.42242 484.267 7.84543 484.513 8.65343C484.617 8.99343 484.318 9.31543 483.987 9.31743C483.224 9.32243 482.582 8.67641 482.014 8.22441C481.687 7.96441 481.3 7.72841 480.999 7.44041C480.719 7.17341 480.511 6.83041 480.273 6.52241C480.251 6.49241 480.264 6.4424 480.308 6.4434Z" fill="#424242"/>
<path d="M558.119 8.3794C557.989 8.2534 558.803 8.24042 558.992 8.23542C559.7 8.21842 560.396 8.2364 561.104 8.1724C562.141 8.0784 563.349 7.4284 564.324 7.9264C564.529 8.0314 564.574 8.27741 564.537 8.47941C564.246 10.0514 561.657 10.0154 560.441 9.92341C559.471 9.85041 557.614 9.93041 557.523 8.61341C557.5 8.29641 557.919 8.1854 558.119 8.3794Z" fill="#424242"/>
<path d="M558.581 11.5514C559.477 11.7744 560.392 11.8734 561.314 11.7894C562.185 11.7094 562.762 11.5424 563.621 11.8064C563.992 11.9204 564.057 12.3524 563.82 12.6224C562.517 14.1104 559.828 13.5084 558.171 12.9354C557.295 12.6324 557.676 11.3264 558.581 11.5514Z" fill="#424242"/>
<path d="M620.958 13.3424C622.058 12.6254 623.203 12.0894 624.494 11.8274C625.508 11.6214 626.806 11.3274 627.727 11.8864C628.008 12.0574 628.033 12.5354 627.712 12.6854C626.818 13.1024 625.782 12.8984 624.812 13.0684C623.638 13.2744 622.486 13.6384 621.411 14.1504C620.87 14.4074 620.458 13.6684 620.958 13.3424Z" fill="#424242"/>
<path d="M620.551 9.62039C621.428 8.95439 622.447 8.50241 623.501 8.18341C624.515 7.87741 625.589 7.4174 626.467 8.1874C626.742 8.4284 626.722 8.8484 626.572 9.1434C626.111 10.0534 624.917 10.0414 624.023 10.2304C623.017 10.4424 621.986 10.6414 620.956 10.6564C620.473 10.6624 620.127 9.94239 620.551 9.62039Z" fill="#424242"/>
<path d="M361.902 22.9214C365.52 26.0024 366.356 31.7484 363.763 35.7314C363.076 36.7874 362.246 37.6184 361.296 38.2014C360.052 38.9654 358.498 39.3674 356.545 39.4294C356.22 39.4394 355.889 39.4424 355.554 39.4364C352.851 39.3854 349.259 38.7424 347.507 35.9914C344.789 32.0934 345.44 26.3234 348.958 23.1284C350.722 21.5274 353.201 20.6364 355.76 20.6834C358.077 20.7264 360.257 21.5214 361.902 22.9214ZM356.498 37.9484C358.186 37.8944 359.502 37.5644 360.521 36.9384C361.282 36.4714 361.955 35.7934 362.521 34.9234C364.684 31.5994 363.961 26.6194 360.941 24.0484C359.557 22.8704 357.707 22.2004 355.733 22.1634C353.548 22.1224 351.442 22.8734 349.954 24.2234C347.018 26.8894 346.454 31.8904 348.739 35.1684C350.155 37.3914 353.242 37.9104 355.582 37.9534C355.891 37.9614 356.198 37.9584 356.498 37.9484Z" fill="#424242"/>
</svg>
