<svg width="667" height="89" viewBox="0 0 667 89" fill="none" xmlns="http://www.w3.org/2000/svg">
<g opacity="0.5">
<path d="M87.0155 74.8449C97.8784 73.1337 105.297 62.9404 103.586 52.0775C101.875 41.2146 91.6818 33.7956 80.8189 35.5067C69.9559 37.2179 62.5369 47.4112 64.2481 58.2741C65.9592 69.137 76.1525 76.556 87.0155 74.8449Z" fill="#D0E28F"/>
</g>
<g opacity="0.5">
<path d="M42.4819 21.8894C42.6879 32.8844 33.9419 41.9654 22.9469 42.1704C11.9519 42.3764 2.87094 33.6304 2.66494 22.6354C2.45894 11.6404 11.2049 2.5594 22.1999 2.3544C33.1949 2.1484 42.2759 10.8944 42.4819 21.8894Z" fill="#EC442E"/>
</g>
<g opacity="0.5">
<path d="M160.157 44.5393C166.762 35.7471 164.99 23.2645 156.198 16.6585C147.406 10.0526 134.923 11.8249 128.317 20.617C121.711 29.4092 123.484 41.8919 132.276 48.4978C141.068 55.1038 153.551 53.3315 160.157 44.5393Z" fill="#FFEE58"/>
</g>
<g opacity="0.5">
<path d="M241.545 62.127C249.321 54.351 249.321 41.7435 241.545 33.9675C233.769 26.1914 221.161 26.1914 213.385 33.9675C205.609 41.7435 205.609 54.351 213.385 62.127C221.161 69.9031 233.769 69.9031 241.545 62.127Z" fill="#F2B15C"/>
</g>
<g opacity="0.5">
<path d="M312.238 30.9054C312.444 41.9004 303.698 50.9814 292.703 51.1874C281.708 51.3934 272.627 42.6474 272.421 31.6524C272.215 20.6574 280.961 11.5764 291.956 11.3714C302.952 11.1634 312.032 19.9104 312.238 30.9054Z" fill="#99D3E0"/>
</g>
<g opacity="0.5">
<path d="M427.172 44.4416C436.687 38.9287 439.932 26.7456 434.42 17.2298C428.907 7.71406 416.724 4.46901 407.208 9.98185C397.692 15.4947 394.447 27.6778 399.96 37.1936C405.473 46.7094 417.656 49.9544 427.172 44.4416Z" fill="#D0E28F"/>
</g>
<g opacity="0.5">
<path d="M369.618 74.4409C377.538 66.8122 377.774 54.2074 370.146 46.2873C362.517 38.3672 349.912 38.131 341.992 45.7597C334.072 53.3883 333.836 65.9931 341.464 73.9132C349.093 81.8333 361.698 82.0696 369.618 74.4409Z" fill="#EC442E"/>
</g>
<g opacity="0.5">
<path d="M490.75 64.6469C498.962 57.3328 499.691 44.7458 492.376 36.5332C485.062 28.3206 472.475 27.5922 464.263 34.9064C456.05 42.2205 455.322 54.8075 462.636 63.0201C469.95 71.2327 482.537 71.9611 490.75 64.6469Z" fill="#FFEE58"/>
</g>
<g opacity="0.5">
<path d="M569.297 52.3191C579.231 47.6025 583.461 35.7251 578.745 25.7904C574.028 15.8556 562.151 11.6255 552.216 16.3421C542.281 21.0588 538.051 32.9361 542.768 42.8709C547.484 52.8056 559.362 57.0358 569.297 52.3191Z" fill="#EC442E"/>
</g>
<g opacity="0.5">
<path d="M638.709 66.0443C646.986 58.8038 647.827 46.224 640.587 37.9465C633.346 29.669 620.766 28.8283 612.489 36.0688C604.211 43.3093 603.371 55.8891 610.611 64.1666C617.852 72.4441 630.431 73.2848 638.709 66.0443Z" fill="#F2B15C"/>
</g>
<path d="M664.804 46.5564C660.195 49.4144 654.122 48.0664 650.149 45.4614C646.861 43.3064 644.281 40.1994 642.149 36.9964C643.065 36.0664 643.864 35.0474 644.51 33.9624C646.361 30.8544 646.743 27.5844 645.616 24.5064C644.693 21.9864 642.988 20.5724 640.815 20.5234C640.808 20.5234 640.802 20.5234 640.795 20.5234C638.482 20.4794 636.37 22.0074 635.535 24.3294C634.23 27.9604 635.915 31.3784 637.596 34.2984C638.022 35.0394 638.468 35.7934 638.935 36.5524C636.758 38.2674 634.082 39.4864 631.412 39.8784C626.49 40.6024 621.604 39.6914 616.434 38.7284C613.762 38.2304 610.999 37.7154 608.245 37.4514C601.175 36.7754 596.152 38.5784 593.624 42.6764C590.888 41.8854 588.03 41.3404 585.07 41.0484C578.133 40.3634 571.115 40.4964 564.209 41.4424C560.888 41.8974 557.463 42.5404 554.15 43.1614C542.459 45.3534 530.369 47.6204 520.301 42.1994C520.166 42.1264 520.018 42.0444 519.86 41.9534C519.862 41.9514 519.864 41.9504 519.866 41.9484C523.401 39.1424 525.296 35.6814 525.202 32.2034C525.13 29.5424 523.824 27.1804 521.71 25.8864C519.604 24.5974 517.159 24.6364 515.002 25.9914C512.342 27.6634 510.699 30.9504 511.005 33.9864C511.296 36.8704 512.889 39.6244 515.509 41.8964C505.606 47.3864 492.728 43.9694 485.54 41.2404C482.461 40.0714 479.354 38.7084 476.349 37.3894C467.746 33.6144 458.848 29.7264 449.135 29.6474C447.135 29.6344 445.233 30.0864 443.635 30.9544C443.576 30.9864 443.518 31.0184 443.461 31.0514C434.809 28.8264 425.232 30.1424 417.626 34.8724C414.677 36.7064 412.031 39.0044 409.471 41.2264C406.047 44.1994 402.813 47.0084 398.909 48.8134C391.443 52.2674 382.282 50.8404 375.727 46.0184C378.216 43.4084 379.646 40.0084 379.56 36.8894C379.494 34.4694 378.514 32.3234 376.727 30.6834C375.297 29.3714 373.402 28.7134 371.525 28.8764C369.736 29.0324 368.149 29.9054 367.054 31.3334C364.526 34.6314 366.513 38.5004 367.166 39.7714C368.386 42.1474 370.02 44.2574 371.946 46.0594C367.088 49.6304 359.914 50.7074 353.281 48.6964C349.165 47.4484 343.498 43.1524 339.548 39.7174C339.503 39.6784 339.463 39.6414 339.418 39.6024L339.425 39.5934C339.153 39.3804 338.902 39.1404 338.644 38.9094C338.277 38.5734 337.937 38.2514 337.62 37.9454C337.387 37.7124 337.156 37.4854 336.919 37.2434C335.747 36.0444 334.49 34.7644 332.836 33.7174L332.844 33.7044C327.05 29.9374 320.163 31.7984 315.535 34.8334C312.006 37.1464 309.268 40.3834 307.021 43.7144C304.553 41.8144 301.561 40.4874 298.51 40.0394C293.178 39.2564 287.863 40.2474 282.72 41.2054C280.101 41.6934 277.393 42.1984 274.748 42.4514C270.652 42.8444 265.473 42.4814 262.813 38.8974C264.622 38.2584 266.373 37.5054 268.058 36.6424C273.05 34.0834 274.722 29.8594 274.635 27.0184C274.57 24.8684 273.53 23.1464 271.854 22.4114C270.461 21.8004 267.42 21.3854 262.716 25.4654C259.241 28.4794 257.929 33.2434 259.305 37.4174C256.826 38.1104 254.24 38.5904 251.565 38.8554C244.821 39.5214 237.997 39.3924 231.282 38.4724C228.022 38.0254 224.627 37.3894 221.343 36.7734C209.23 34.5014 196.704 32.1524 185.868 37.9884C185.354 38.2654 184.863 38.5554 184.392 38.8594C173.501 32.1234 159.241 35.8354 151.402 38.8114C148.265 40.0024 145.128 41.3784 142.095 42.7094C133.721 46.3844 125.05 50.1794 115.857 50.2434C115.214 50.2474 114.586 50.1924 113.985 50.0814C114.875 49.7304 115.749 49.3384 116.604 48.9064C120.061 47.1574 124.485 44.0214 125.927 39.0174C126.691 36.3674 126.277 33.3444 124.822 30.9304C123.618 28.9344 121.818 27.5984 119.753 27.1694C114.264 26.0274 109.576 31.0934 107.365 36.6194C105.225 41.9674 105.416 46.4204 107.808 49.3234C100.283 50.7904 92.191 49.4504 85.667 45.3924C82.885 43.6624 80.313 41.4294 77.827 39.2704C74.424 36.3144 70.905 33.2594 66.683 31.3064C58.27 27.4144 47.914 29.1084 40.622 34.6654C35.11 30.3004 27.006 28.9664 19.305 31.3014C12.54 33.3524 6.045 38.0354 0 45.2204L1.889 46.8094C7.621 39.9954 13.721 35.5724 20.021 33.6634C26.655 31.6524 33.829 32.7294 38.686 36.3004C36.76 38.1024 35.126 40.2124 33.906 42.5884C33.253 43.8594 31.266 47.7274 33.794 51.0254C34.889 52.4534 36.476 53.3264 38.265 53.4824C40.142 53.6454 42.037 52.9874 43.467 51.6754C45.254 50.0364 46.233 47.8904 46.3 45.4694C46.385 42.3504 44.955 38.9504 42.467 36.3414C49.021 31.5184 58.183 30.0924 65.648 33.5464C69.552 35.3524 72.786 38.1604 76.21 41.1334C78.769 43.3554 81.416 45.6544 84.365 47.4874C91.971 52.2174 101.547 53.5334 110.2 51.3084C110.258 51.3414 110.316 51.3734 110.374 51.4054C111.972 52.2734 113.874 52.7254 115.874 52.7124C125.588 52.6334 134.485 48.7464 143.088 44.9704C146.093 43.6514 149.2 42.2884 152.279 41.1194C159.467 38.3904 172.345 34.9734 182.248 40.4634C179.628 42.7354 178.035 45.4904 177.744 48.3734C177.438 51.4094 179.081 54.6964 181.741 56.3684C183.897 57.7234 186.343 57.7624 188.448 56.4734C190.563 55.1794 191.869 52.8174 191.94 50.1564C192.034 46.6784 190.139 43.2174 186.604 40.4124C186.602 40.4104 186.601 40.4094 186.598 40.4074C186.757 40.3164 186.905 40.2344 187.039 40.1614C197.108 34.7394 209.197 37.0074 220.888 39.1994C224.2 39.8204 227.626 40.4634 230.947 40.9184C237.853 41.8644 244.87 41.9974 251.808 41.3124C254.768 41.0194 257.626 40.4754 260.362 39.6844C262.89 43.7824 267.913 45.5854 274.983 44.9094C277.738 44.6464 280.501 44.1304 283.172 43.6334C288.342 42.6704 293.228 41.7594 298.15 42.4834C300.82 42.8754 303.496 44.0944 305.673 45.8094C305.206 46.5684 304.76 47.3224 304.334 48.0634C302.652 50.9824 300.968 54.4014 302.273 58.0324C303.108 60.3554 305.22 61.8824 307.533 61.8394C307.54 61.8394 307.546 61.8394 307.553 61.8394C309.726 61.7904 311.431 60.3764 312.354 57.8564C313.481 54.7784 313.099 51.5084 311.248 48.4004C310.602 47.3164 309.803 46.2974 308.887 45.3664C311.019 42.1634 313.599 39.0564 316.887 36.9014C319.603 35.1204 323.342 34.0364 326.88 34.3674C330.919 34.9494 332.906 36.9744 335.002 39.1204C335.858 39.9964 336.743 40.9024 337.772 41.7064L337.785 41.6904C341.937 45.2664 348.44 49.8134 352.563 51.0634C360.264 53.3984 368.368 52.0644 373.88 47.6994C381.172 53.2554 391.528 54.9494 399.941 51.0584C404.163 49.1054 407.682 46.0494 411.085 43.0944C413.571 40.9354 416.143 38.7024 418.925 36.9724C425.449 32.9144 433.541 31.5744 441.066 33.0414C438.675 35.9444 438.483 40.3974 440.623 45.7454C442.835 51.2714 447.522 56.3364 453.011 55.1944C455.076 54.7654 456.876 53.4294 458.08 51.4334C459.535 49.0204 459.948 45.9974 459.185 43.3464C457.743 38.3414 453.319 35.2064 449.862 33.4574C449.007 33.0244 448.133 32.6334 447.243 32.2824C447.844 32.1704 448.472 32.1154 449.115 32.1204C458.308 32.1844 466.979 35.9794 475.353 39.6544C478.386 40.9854 481.522 42.3614 484.66 43.5524C492.5 46.5284 506.759 50.2414 517.651 43.5044C518.122 43.8084 518.613 44.0984 519.127 44.3744C529.963 50.2104 542.489 47.8614 554.601 45.5894C557.884 44.9734 561.279 44.3364 564.54 43.8904C571.255 42.9704 578.079 42.8414 584.823 43.5074C587.499 43.7714 590.084 44.2524 592.563 44.9454C591.187 49.1204 592.499 53.8834 595.974 56.8974C600.678 60.9764 603.719 60.5614 605.112 59.9514C606.788 59.2174 607.828 57.4954 607.893 55.3444C607.979 52.5044 606.308 48.2794 601.316 45.7204C599.631 44.8564 597.88 44.1044 596.071 43.4654C598.73 39.8814 603.909 39.5184 608.006 39.9114C610.651 40.1644 613.359 40.6694 615.978 41.1574C621.12 42.1154 626.436 43.1064 631.768 42.3234C634.819 41.8754 637.81 40.5484 640.279 38.6484C642.526 41.9794 645.264 45.2154 648.793 47.5294C653.421 50.5644 660.568 52.0894 666.102 48.6584L664.804 46.5564ZM43.837 45.4024C43.789 47.1644 43.104 48.6624 41.803 49.8564C40.882 50.7024 39.673 51.1264 38.485 51.0234C37.395 50.9284 36.427 50.3954 35.758 49.5234C34.682 48.1194 34.793 46.2734 36.107 43.7154C37.237 41.5144 38.76 39.5684 40.558 37.9144C40.566 37.9224 40.574 37.9304 40.581 37.9384C42.658 40.0644 43.905 42.9244 43.837 45.4024ZM109.663 37.5364C111.318 33.4014 114.484 29.5454 118.101 29.4774C118.481 29.4704 118.868 29.5054 119.257 29.5864C120.642 29.8744 121.87 30.8044 122.715 32.2054C123.805 34.0134 124.13 36.3624 123.562 38.3344C122.366 42.4854 118.516 45.1774 115.496 46.7054C113.935 47.4954 112.305 48.1374 110.632 48.6334C107.072 45.8474 108.448 40.5734 109.663 37.5364ZM189.478 50.0914C189.429 51.9134 188.564 53.5134 187.165 54.3694C185.506 55.3844 184.017 54.8804 183.059 54.2794C181.192 53.1064 179.992 50.7274 180.205 48.6224C180.507 45.6284 182.542 43.3604 184.443 41.8654C184.656 42.0214 184.866 42.1814 185.075 42.3474C186.761 43.6854 189.576 46.4724 189.478 50.0914ZM261.668 36.6854C260.577 33.4344 261.608 29.7004 264.339 27.3314C266.432 25.5164 268.396 24.5144 269.839 24.4874C270.221 24.4804 270.567 24.5414 270.868 24.6734C271.661 25.0214 272.136 25.9034 272.173 27.0944C272.242 29.3824 270.65 32.5434 266.937 34.4464C265.25 35.3124 263.491 36.0594 261.668 36.6854ZM309.132 49.6614C310.149 51.3684 311.131 54.0294 310.041 57.0054C309.652 58.0664 308.896 59.3384 307.502 59.3694C307.499 59.3694 307.496 59.3694 307.492 59.3694C306.238 59.3934 305.077 58.5204 304.601 57.1964C303.653 54.5584 305.009 51.8464 306.478 49.2944C306.815 48.7094 307.164 48.1154 307.526 47.5184C308.143 48.1924 308.685 48.9104 309.132 49.6614ZM373.839 44.4224C373.831 44.4304 373.823 44.4384 373.816 44.4464C372.017 42.7924 370.495 40.8464 369.364 38.6454C368.05 36.0864 367.939 34.2414 369.015 32.8374C369.683 31.9654 370.652 31.4334 371.742 31.3384C372.93 31.2354 374.139 31.6594 375.06 32.5054C376.361 33.6994 377.045 35.1974 377.094 36.9594C377.162 39.4374 375.915 42.2964 373.839 44.4224ZM448.752 35.6564C451.771 37.1844 455.622 39.8764 456.818 44.0274C457.386 45.9994 457.062 48.3474 455.971 50.1564C455.126 51.5574 453.898 52.4874 452.514 52.7754C452.124 52.8564 451.738 52.8914 451.358 52.8844C447.741 52.8164 444.575 48.9604 442.92 44.8254C441.705 41.7884 440.329 36.5144 443.889 33.7284C445.561 34.2244 447.191 34.8674 448.752 35.6564ZM518.331 40.0144C518.123 40.1794 517.912 40.3404 517.7 40.4964C515.8 39.0014 513.764 36.7334 513.462 33.7394C513.249 31.6344 514.45 29.2554 516.316 28.0824C517.273 27.4804 518.763 26.9774 520.422 27.9924C521.821 28.8484 522.686 30.4484 522.735 32.2704C522.833 35.8894 520.018 38.6754 518.331 40.0144ZM600.194 47.9144C603.907 49.8174 605.5 52.9784 605.43 55.2664C605.394 56.4574 604.918 57.3394 604.125 57.6874C603.824 57.8194 603.478 57.8804 603.096 57.8734C601.653 57.8464 599.689 56.8454 597.596 55.0294C594.864 52.6604 593.833 48.9264 594.925 45.6754C596.748 46.3024 598.506 47.0494 600.194 47.9144ZM639.735 33.0664C638.265 30.5144 636.91 27.8024 637.858 25.1644C638.334 23.8394 639.495 22.9674 640.749 22.9914C640.752 22.9914 640.755 22.9914 640.759 22.9914C642.153 23.0224 642.91 24.2944 643.298 25.3554C644.388 28.3324 643.406 30.9924 642.389 32.6994C641.942 33.4504 641.401 34.1684 640.784 34.8414C640.42 34.2454 640.071 33.6514 639.735 33.0664Z" fill="#375B1B"/>
<path d="M16.856 12.8574C16.856 12.8574 23.692 8.77938 27.47 12.7404C31.248 16.7014 31.466 19.5784 30.86 22.3874C30.254 25.1964 29.641 27.5944 24.883 28.4244C20.125 29.2544 15.652 27.6924 14.44 24.5054C13.229 21.3194 13.272 14.8174 16.856 12.8574Z" fill="#EC442E"/>
<path d="M75.754 52.3864C75.754 52.3864 82.369 48.7364 86.016 52.2674C89.663 55.7984 89.87 58.3654 89.281 60.8744C88.691 63.3834 88.095 65.5244 83.494 66.2714C78.893 67.0184 74.57 65.6304 73.403 62.7874C72.236 59.9444 72.286 54.1404 75.754 52.3864Z" fill="#D0E28F"/>
<path d="M136.519 23.5604C136.519 23.5604 144.898 19.2304 148.638 23.0604C152.378 26.8914 151.534 28.6114 150.933 31.3294C150.332 34.0474 147.59 37.3994 144.464 38.6164C140.008 40.3504 135.321 37.9124 134.122 34.8304C132.923 31.7474 132.968 25.4584 136.519 23.5604Z" fill="#FFEE58"/>
<path d="M20.679 29.2444L24.131 29.0154L26.907 27.8114C26.907 27.8114 29.002 34.1914 26.394 35.5564C23.786 36.9224 22.929 35.1274 22.247 33.8234C21.563 32.5204 20.679 29.2444 20.679 29.2444Z" fill="#CBCFD1"/>
<path d="M81.814 50.6484C81.814 50.6484 82.327 42.9034 87.105 43.1424C91.883 43.3824 91.448 46.5174 91.448 46.5174C91.448 46.5174 90.864 50.4784 89.914 52.4714C88.964 54.4644 87.66 55.1474 87.66 55.1474C87.66 55.1474 84.623 51.2534 81.814 50.6484Z" fill="#CBCFD1"/>
<path d="M143.491 39.4514L149.657 34.7274C149.657 34.7274 155.536 41.0364 152.962 44.2114C150.388 47.3864 147.883 45.4584 146.71 44.3284C145.536 43.1994 143.491 39.4514 143.491 39.4514Z" fill="#CBCFD1"/>
<path d="M224.388 43.8604C224.388 43.8604 223.461 38.2814 225.572 36.7604C227.683 35.2394 229.468 33.8894 231.65 36.1524C233.832 38.4154 232.761 42.7154 232.761 42.7154L231.649 44.8764C231.649 44.8764 226.679 43.1594 224.388 43.8604Z" fill="#CBCFD1"/>
<path d="M287.582 34.6114L291.872 35.1894L296.473 34.7744C296.473 34.7744 296.14 43.3394 292.545 44.7234C288.95 46.1074 287.224 41.8604 287.032 40.3824C286.84 38.9044 287.582 34.6114 287.582 34.6114Z" fill="#CBCFD1"/>
<path d="M17.325 15.1514C16.317 16.0104 15.573 17.0614 15.202 18.3394C14.947 19.2184 14.495 21.1064 15.477 21.7014C16.515 22.3314 16.807 20.9344 16.873 20.2344C17.007 18.8084 17.604 17.4124 18.56 16.3414C19.308 15.5034 18.154 14.4454 17.325 15.1514Z" fill="#E5E5E5"/>
<path d="M16.783 24.7264C16.793 24.7344 16.869 24.8094 16.875 24.8074C16.85 24.8144 16.674 24.5774 16.903 24.8624C16.953 24.9434 17.019 25.0074 17.101 25.0534C17.232 25.1514 17.25 25.1644 17.155 25.0924C17.02 25.0024 17.159 25.1084 17.188 25.1404C17.478 25.4644 18.079 25.5164 18.435 25.2774C18.821 25.0184 19.008 24.5644 18.885 24.1094C18.792 23.7644 18.593 23.4194 18.273 23.2404C18.028 23.1034 17.714 23.0464 17.438 23.0544C17.048 23.0664 16.705 23.3084 16.561 23.6684C16.429 24.0014 16.481 24.4864 16.783 24.7264Z" fill="#E5E5E5"/>
<path d="M78.9741 53.8374C76.8531 51.5914 73.7941 57.2554 74.9031 59.1504C75.1401 59.5554 75.4781 59.8184 75.9461 59.6354C76.6151 59.3754 76.7351 58.5674 76.8491 57.9544C76.9921 57.1824 77.2161 56.3064 77.7131 55.6794C77.9701 55.3554 78.3241 55.2044 78.6071 54.9224C78.8291 54.7014 78.8961 54.4424 79.0231 54.1724C79.0791 54.0564 79.0631 53.9324 78.9741 53.8374Z" fill="#E5E5E5"/>
<path d="M76.621 62.3234C76.691 62.5304 76.765 62.7264 76.857 62.9254C77.001 63.2364 77.37 63.3534 77.679 63.3764C77.71 63.3784 77.742 63.3814 77.773 63.3834C78.133 63.4104 78.448 63.0934 78.543 62.7744C78.553 62.7394 78.564 62.7034 78.574 62.6674C78.67 62.3424 78.546 61.9884 78.315 61.7554C78.217 61.6564 78.105 61.5734 77.998 61.4854C77.719 61.2584 77.309 61.1574 76.986 61.3744C76.687 61.5764 76.5 61.9644 76.621 62.3234Z" fill="#E5E5E5"/>
<path d="M136.833 25.2614C135.427 25.8734 135.052 27.4624 134.881 28.8794C134.711 30.2904 134.833 32.1114 136.446 32.5754C137.02 32.7404 137.52 32.3424 137.705 31.8294C138.011 30.9814 137.633 30.0814 137.687 29.2054C137.742 28.3224 137.974 27.4554 138.247 26.6224C138.495 25.8614 137.614 24.9214 136.833 25.2614Z" fill="#E5E5E5"/>
<path d="M138.909 35.3074C139.006 35.4254 139.097 35.5584 139.204 35.6674C139.358 35.8234 139.576 35.9454 139.762 36.0664C140.08 36.2724 140.488 36.4014 140.865 36.2714C141.149 36.1734 141.46 35.9934 141.601 35.7154C141.739 35.4424 141.792 35.0534 141.689 34.7554C141.564 34.3934 141.32 34.1534 140.994 33.9624C140.641 33.7554 140.287 33.6354 139.889 33.5494C139.453 33.4554 138.934 33.6314 138.722 34.0504C138.496 34.4974 138.602 34.9334 138.909 35.3074Z" fill="#E5E5E5"/>
<path d="M221.294 45.8384C221.294 45.8384 229.04 41.6074 232.503 45.3614C235.966 49.1154 235.187 50.7984 234.634 53.4594C234.081 56.1194 231.548 59.3984 228.658 60.5864C224.538 62.2794 220.2 59.8874 219.088 56.8694C217.976 53.8494 218.011 47.6924 221.294 45.8384Z" fill="#F2B15C"/>
<path d="M294.935 18.5364C294.935 18.5364 303.33 21.8074 301.577 29.2474C300.405 34.2184 298.595 33.9694 296.002 34.7834C293.41 35.5974 288.096 34.1014 285.649 32.1574C282.162 29.3864 282.135 24.4324 284.228 21.9894C286.323 19.5454 291.716 16.5744 294.935 18.5364Z" fill="#99D3E0"/>
<path d="M222.402 48.7734C222.548 48.6994 222.057 48.8114 221.979 48.8374C221.671 48.9394 221.434 49.1384 221.216 49.3704C220.791 49.8234 220.529 50.3684 220.367 50.9644C220.078 52.0324 219.976 53.5764 220.652 54.5124C221.555 55.7644 223.393 55.2314 223.483 53.6884C223.525 52.9654 223.236 52.3364 223.396 51.6004C223.471 51.2554 223.561 50.9174 223.619 50.5684C223.658 50.3374 223.673 50.1424 223.659 49.9114C223.657 49.8204 223.638 49.7344 223.602 49.6524C223.56 49.5374 223.562 49.5414 223.609 49.6654C223.815 48.9384 222.999 48.4714 222.402 48.7734Z" fill="#E5E5E5"/>
<path d="M223.608 56.8864C223.75 57.1094 223.881 57.3264 224.099 57.4884C224.338 57.6664 224.61 57.7464 224.896 57.8184C225.482 57.9664 226.087 57.6454 226.308 57.0924C226.523 56.5544 226.323 55.8694 225.785 55.5924C225.521 55.4564 225.266 55.3304 224.967 55.2964C224.691 55.2644 224.438 55.3384 224.175 55.4144C223.567 55.5894 223.263 56.3464 223.608 56.8864Z" fill="#E5E5E5"/>
<path d="M290.171 22.3945C289.705 22.1665 289.3 21.8914 288.695 21.9994C288.1 22.1054 287.554 22.4814 287.104 22.8714C286.186 23.6664 285.419 25.2684 286.25 26.3764C286.629 26.8824 287.306 27.0885 287.87 26.7445C288.122 26.5905 288.343 26.3344 288.484 26.0784C288.603 25.8624 288.699 25.5155 288.753 25.4085C288.96 24.9945 289.084 24.7094 289.423 24.4234C289.552 24.3144 289.774 24.1825 289.919 24.0325C290.032 23.9155 290.143 23.7795 290.223 23.6365C290.258 23.5825 290.284 23.5234 290.302 23.4604C290.396 23.2454 290.36 23.2905 290.195 23.5925C290.581 23.3035 290.678 22.6425 290.171 22.3945Z" fill="#E5E5E5"/>
<path d="M288.051 29.6214C287.85 30.0544 287.818 30.5194 288.104 30.9254C288.566 31.5794 289.448 31.5624 289.885 30.8924C290.156 30.4764 290.106 30.0124 289.889 29.5874C289.537 28.8984 288.377 28.9204 288.051 29.6214Z" fill="#E5E5E5"/>
<path d="M25.166 36.7724C25.161 36.7724 25.157 36.7724 25.152 36.7724C23.916 36.7894 22.769 36.0404 21.745 34.5474C20.506 32.7404 19.703 30.6364 19.423 28.4644L20.892 28.2744C21.142 30.2154 21.86 32.0954 22.967 33.7104C23.466 34.4384 24.247 35.3044 25.132 35.2924C25.134 35.2924 25.136 35.2924 25.138 35.2924C25.772 35.2804 26.441 34.7604 26.766 34.0244C27.134 33.1914 27.109 32.1864 27.045 31.4054C26.934 30.0524 26.657 28.7154 26.221 27.4314L27.623 26.9544C28.099 28.3534 28.401 29.8104 28.521 31.2854C28.599 32.2414 28.624 33.4844 28.12 34.6234C27.562 35.8874 26.376 36.7494 25.166 36.7724Z" fill="#424242"/>
<path d="M88.235 55.5474L87.306 54.3944C88.965 53.0584 89.7511 52.0144 90.0181 50.7904C90.2961 49.5134 90.584 48.1944 90.588 46.9014C90.59 46.2824 90.522 45.8124 90.375 45.4234C89.935 44.2614 88.506 43.4824 87.127 43.6504C85.811 43.8094 84.547 44.7084 83.747 46.0534C83.058 47.2114 82.689 48.6544 82.619 50.4674L81.139 50.4094C81.219 48.3444 81.656 46.6714 82.474 45.2964C83.508 43.5594 85.1811 42.3944 86.9491 42.1804C89.0071 41.9304 91.079 43.0994 91.76 44.8994C91.974 45.4634 92.072 46.1014 92.069 46.9074C92.064 48.3574 91.76 49.7554 91.465 51.1064C91.12 52.6914 90.184 53.9784 88.235 55.5474Z" fill="#424242"/>
<path d="M81.603 67.9494C80.479 67.9704 79.285 67.7974 78.071 67.4234C76.697 66.9994 74.211 65.4534 73.388 63.1094C72.837 61.5394 72.2991 59.8604 72.3001 58.1004C72.3011 56.1314 72.9311 54.3484 74.0741 53.0784C75.4191 51.5844 77.3801 50.9104 78.7381 50.5344C79.4961 50.3244 80.399 50.1124 81.343 50.1294C83.363 50.1684 85.0141 51.2244 86.0441 52.1044C86.8981 52.8344 87.62 53.6764 88.288 54.5394L88.338 54.4974C90.127 56.6434 90.5691 58.9144 89.7291 61.6424C89.1091 63.6554 87.239 65.4974 86.463 66.1954C85.22 67.3154 83.514 67.9134 81.603 67.9494ZM81.147 51.6084C80.448 51.6214 79.742 51.7914 79.135 51.9594C77.955 52.2864 76.262 52.8604 75.176 54.0674C74.278 55.0654 73.783 56.4974 73.782 58.1004C73.781 59.6274 74.278 61.1694 74.786 62.6184C75.446 64.4984 77.619 65.7324 78.509 66.0074C81.285 66.8644 83.8891 66.5224 85.4751 65.0934C86.9001 63.8104 87.962 62.3564 88.317 61.2054C88.848 59.4804 88.765 58.0274 88.028 56.6504L88.024 56.6534C87.135 55.4454 86.2151 54.1954 85.0851 53.2294C83.8891 52.2074 82.551 51.6324 81.318 51.6084C81.26 51.6074 81.203 51.6074 81.147 51.6084Z" fill="#424242"/>
<path d="M150.125 46.3594C149.051 46.3794 147.894 45.9584 146.738 45.1204C144.635 43.5954 143.111 41.2654 142.558 38.7264L144.005 38.4114C144.482 40.5994 145.795 42.6074 147.607 43.9214C148.352 44.4624 149.466 45.0604 150.532 44.8294C151.516 44.6184 152.356 43.6554 152.576 42.4864C152.825 41.1604 152.337 39.8274 151.885 38.9424C151.507 38.2024 150.705 37.1944 149.998 36.3044C149.596 35.7984 149.216 35.3194 148.924 34.9074L150.134 34.0534C150.401 34.4314 150.768 34.8934 151.157 35.3824C151.907 36.3264 152.757 37.3964 153.203 38.2674C154.003 39.8314 154.289 41.3844 154.031 42.7584C153.699 44.5254 152.417 45.9394 150.842 46.2764C150.608 46.3274 150.369 46.3554 150.125 46.3594Z" fill="#424242"/>
<path d="M142.056 39.9554C141.849 39.9594 141.644 39.9534 141.441 39.9364C140.488 39.8594 139.513 39.5674 138.372 39.0174C136.345 38.0404 134.839 36.6924 134.017 35.1184C132.086 31.4204 131.908 28.2374 133.486 25.6554C135.738 21.9734 140.931 20.7644 142.968 20.7874C145.636 20.8094 149.214 22.0914 150.593 24.4234C152.054 26.8964 153.13 32.6784 150.041 35.0234C149.074 36.1594 148.049 37.2884 146.805 38.2024C145.29 39.3154 143.626 39.9254 142.056 39.9554ZM142.853 22.2684C141.246 22.2984 136.67 23.2884 134.75 26.4274C133.461 28.5344 133.656 31.2274 135.33 34.4314C136.18 36.0604 137.803 37.0984 139.015 37.6824C139.986 38.1504 140.795 38.3974 141.561 38.4594C142.949 38.5744 144.5 38.0574 145.928 37.0074C147.269 36.0224 148.384 34.6954 149.463 33.4124L149.541 33.4784C151.303 31.5154 150.477 27.1374 149.318 25.1764C148.271 23.4034 145.2 22.2864 142.957 22.2674C142.923 22.2674 142.889 22.2674 142.853 22.2684Z" fill="#424242"/>
<path d="M232.651 44.8894L231.267 44.3624C231.807 42.9444 232.365 41.4774 232.404 39.9884C232.435 38.7904 232.044 37.2294 230.852 36.4424C230.111 35.9534 229.106 35.8184 228.158 36.0834C227.268 36.3324 226.419 36.9274 225.768 37.7584C225.386 38.2464 225.136 38.7324 225.026 39.2034C224.902 39.7354 224.935 40.3354 224.966 40.9174C225.008 41.6844 225.088 43.0794 225.133 43.8454L223.654 43.9314C223.609 43.1634 223.529 41.7664 223.487 40.9974C223.451 40.3444 223.411 39.6044 223.583 38.8664C223.742 38.1844 224.085 37.5044 224.602 36.8454C225.446 35.7684 226.567 34.9914 227.758 34.6574C229.113 34.2794 230.574 34.4834 231.668 35.2064C233.087 36.1454 233.936 37.9914 233.883 40.0264C233.839 41.7684 233.207 43.4264 232.651 44.8894Z" fill="#424242"/>
<path d="M226.857 61.4914C226.709 61.4944 226.562 61.4934 226.414 61.4884C222.386 61.3514 218.719 58.1904 218.065 54.2934C217.813 52.7914 217.995 51.2864 218.153 50.2844C218.382 48.8354 218.806 46.9954 220.056 45.6214C221.21 44.3534 222.993 43.5744 225.354 43.3074C228.127 42.9974 230.599 43.4954 232.405 44.6984L232.684 44.3924C235.622 47.0674 236.781 51.4934 235.504 55.1544C234.227 58.8154 230.638 61.4204 226.857 61.4914ZM226.675 44.7034C226.22 44.7124 225.825 44.7444 225.521 44.7784C223.527 45.0034 222.057 45.6224 221.152 46.6164C220.166 47.7004 219.813 49.2694 219.616 50.5144C219.387 51.9634 219.359 53.0534 219.525 54.0464C220.067 57.2744 223.115 59.8924 226.464 60.0064C229.706 60.1144 233.004 57.8214 234.105 54.6654C235.003 52.0924 234.482 49.0714 232.861 46.8084L232.719 46.9294C231.07 44.9924 228.43 44.6704 226.675 44.7034Z" fill="#424242"/>
<path d="M291.666 45.4814C289.978 45.5134 288.253 44.4484 287.306 42.7264C286.371 41.0264 286.268 39.0624 286.291 37.3644C286.304 36.4444 286.355 35.3814 286.807 34.4104L288.15 35.0364C287.821 35.7414 287.782 36.6184 287.772 37.3854C287.752 38.8884 287.836 40.6144 288.604 42.0134C289.246 43.1814 290.628 44.2274 292.026 43.9614C293.542 43.6744 294.449 42.0254 294.766 40.7004C295.196 38.8984 295.783 36.1974 296.074 34.5194L297.533 34.7724C297.223 36.5594 296.628 39.2754 296.206 41.0434C295.767 42.8824 294.51 44.9974 292.302 45.4154C292.091 45.4564 291.879 45.4774 291.666 45.4814Z" fill="#424242"/>
<path d="M292.625 35.7194C291.605 35.7384 290.615 35.6814 289.73 35.4774C286.812 34.8064 284.468 33.2834 283.13 31.1894C281.165 28.1134 281.536 23.7494 284.012 20.8144C286.295 18.1084 290.182 16.7524 293.917 17.3594C296.933 17.8504 299.561 19.5554 300.948 21.9204C302.682 24.8794 303.241 30.1154 301.122 33.4164C300.476 34.4214 299.475 34.8984 298.271 35.1624L298.278 35.2604C297.859 35.2874 297.411 35.3284 296.943 35.3744C296.681 35.4054 296.414 35.4314 296.141 35.4564C295.007 35.5754 293.797 35.6974 292.625 35.7194ZM291.94 18.6984C289.293 18.7484 286.748 19.8684 285.144 21.7694C283.109 24.1824 282.78 27.8894 284.379 30.3924C285.506 32.1574 287.524 33.4504 290.062 34.0344C291.751 34.4224 294.049 34.1844 296.076 33.9754C296.297 33.9524 296.515 33.9294 296.73 33.9084C298.39 33.7154 299.363 33.4144 299.875 32.6174C301.634 29.8784 301.189 25.2624 299.67 22.6704C298.505 20.6814 296.265 19.2434 293.68 18.8224C293.101 18.7284 292.518 18.6884 291.94 18.6984Z" fill="#424242"/>
<path d="M21.14 31.6924C22.503 32.8174 25.745 32.4564 27.183 31.6214C27.836 31.2424 27.339 30.3684 26.68 30.4884C25.693 30.6684 24.803 31.0314 23.779 31.0774C22.945 31.1154 22.112 30.8494 21.3 31.0314C21.023 31.0944 20.918 31.5084 21.14 31.6924Z" fill="#424242"/>
<path d="M22.717 33.9154C23.71 34.2544 24.477 34.2364 25.523 34.1244C26.332 34.0384 27.272 34.0654 27.863 33.4594C28.131 33.1854 27.974 32.7604 27.633 32.6514C26.829 32.3934 25.968 32.8504 25.166 33.0214C24.275 33.2114 23.521 33.3694 22.692 33.7454C22.612 33.7834 22.65 33.8924 22.717 33.9154Z" fill="#424242"/>
<path d="M82.527 47.6534C84.196 48.8144 87.711 48.9724 88.458 51.1834C88.619 51.6604 89.359 51.8194 89.603 51.3114C90.278 49.9044 88.642 49.0664 87.575 48.5774C86.137 47.9174 84.165 47.0324 82.566 47.3144C82.391 47.3454 82.413 47.5744 82.527 47.6534Z" fill="#424242"/>
<path d="M84.273 45.0174C84.847 45.6434 85.961 45.8164 86.708 46.2194C87.531 46.6644 88.229 47.3474 89.154 47.5684C89.503 47.6514 89.86 47.3184 89.74 46.9594C89.377 45.8664 88.302 45.2904 87.296 44.8634C86.456 44.5074 85.197 44.0074 84.333 44.4714C84.125 44.5824 84.13 44.8614 84.273 45.0174Z" fill="#424242"/>
<path d="M145.109 41.7994C146.451 42.0304 148.211 40.9554 149.325 40.2834C150.352 39.6624 152.258 38.6224 152.292 37.2964C152.298 37.0504 152.062 36.8324 151.821 36.8424C151.245 36.8664 151.072 37.0174 150.66 37.3974C150.003 38.0034 149.321 38.5594 148.584 39.0674C147.98 39.4834 147.361 39.8694 146.71 40.2074C146.072 40.5384 145.435 40.6924 144.946 41.2224C144.78 41.4014 144.842 41.7534 145.109 41.7994Z" fill="#424242"/>
<path d="M147.051 43.9174C147.406 43.9034 147.806 43.9314 148.152 43.8434C148.566 43.7384 149.016 43.4704 149.398 43.2854C150.116 42.9384 151.009 42.5154 151.256 41.7074C151.36 41.3674 151.061 41.0454 150.73 41.0434C149.967 41.0384 149.325 41.6844 148.757 42.1364C148.43 42.3964 148.043 42.6324 147.742 42.9204C147.462 43.1874 147.253 43.5304 147.016 43.8384C146.994 43.8684 147.008 43.9194 147.051 43.9174Z" fill="#424242"/>
<path d="M224.862 41.9814C224.732 42.1074 225.546 42.1204 225.735 42.1254C226.443 42.1424 227.139 42.1244 227.847 42.1884C228.884 42.2824 230.092 42.9324 231.067 42.4344C231.272 42.3294 231.317 42.0834 231.28 41.8814C230.989 40.3084 228.4 40.3454 227.184 40.4374C226.214 40.5104 224.357 40.4304 224.266 41.7474C224.243 42.0644 224.663 42.1754 224.862 41.9814Z" fill="#424242"/>
<path d="M225.324 38.8094C226.22 38.5864 227.135 38.4864 228.057 38.5714C228.928 38.6514 229.505 38.8184 230.364 38.5544C230.735 38.4404 230.8 38.0084 230.563 37.7384C229.26 36.2504 226.571 36.8524 224.914 37.4254C224.038 37.7284 224.42 39.0344 225.324 38.8094Z" fill="#424242"/>
<path d="M287.702 37.0184C288.802 37.7354 289.947 38.2714 291.238 38.5334C292.252 38.7394 293.55 39.0334 294.471 38.4744C294.752 38.3034 294.777 37.8254 294.456 37.6754C293.562 37.2584 292.526 37.4624 291.556 37.2924C290.382 37.0864 289.229 36.7224 288.155 36.2104C287.614 35.9544 287.202 36.6934 287.702 37.0184Z" fill="#424242"/>
<path d="M287.295 40.7414C288.172 41.4074 289.191 41.8604 290.245 42.1784C291.259 42.4844 292.333 42.9444 293.211 42.1744C293.486 41.9334 293.466 41.5134 293.316 41.2184C292.855 40.3084 291.661 40.3204 290.768 40.1314C289.762 39.9194 288.731 39.7204 287.701 39.7064C287.216 39.6994 286.871 40.4194 287.295 40.7414Z" fill="#424242"/>
<path d="M22.504 29.6774C19.945 29.7254 17.466 28.8344 15.702 27.2324C12.183 24.0374 11.533 18.2674 14.251 14.3694C16.002 11.6184 19.595 10.9754 22.298 10.9244C22.633 10.9184 22.964 10.9204 23.289 10.9314C25.242 10.9934 26.796 11.3954 28.04 12.1594C28.99 12.7424 29.82 13.5734 30.507 14.6294C33.099 18.6124 32.264 24.3594 28.646 27.4394C27.001 28.8394 24.82 29.6344 22.504 29.6774ZM22.326 12.4064C19.986 12.4504 16.899 12.9694 15.483 15.1914C13.198 18.4704 13.762 23.4704 16.698 26.1364C18.185 27.4864 20.291 28.2374 22.476 28.1964C24.451 28.1594 26.301 27.4904 27.685 26.3114C30.705 23.7404 31.428 18.7604 29.265 15.4364C28.699 14.5664 28.026 13.8884 27.265 13.4204C26.246 12.7944 24.93 12.4644 23.242 12.4114C22.941 12.4024 22.635 12.4004 22.326 12.4064Z" fill="#424242"/>
<path d="M350.113 69.5044C350.113 69.5044 356.949 73.5824 360.727 69.6214C364.505 65.6594 364.723 62.7834 364.117 59.9744C363.511 57.1654 362.898 54.7664 358.14 53.9374C353.382 53.1074 348.909 54.6694 347.697 57.8564C346.486 61.0414 346.528 67.5444 350.113 69.5044Z" fill="#EC442E"/>
<path d="M409.011 29.9754C409.011 29.9754 415.626 33.6254 419.273 30.0944C422.92 26.5634 423.127 23.9964 422.538 21.4874C421.948 18.9784 421.352 16.8374 416.751 16.0904C412.15 15.3434 407.827 16.7314 406.66 19.5744C405.492 22.4164 405.542 28.2204 409.011 29.9754Z" fill="#D0E28F"/>
<path d="M469.776 58.8004C469.776 58.8004 478.155 63.1304 481.895 59.3004C485.635 55.4694 484.791 53.7494 484.19 51.0314C483.589 48.3134 480.847 44.9614 477.721 43.7444C473.265 42.0104 468.578 44.4484 467.379 47.5304C466.179 50.6134 466.225 56.9034 469.776 58.8004Z" fill="#FFEE58"/>
<path d="M353.935 53.1164L357.387 53.3454L360.162 54.5494C360.162 54.5494 362.257 48.1694 359.649 46.8044C357.041 45.4384 356.185 47.2334 355.502 48.5374C354.82 49.8414 353.935 53.1164 353.935 53.1164Z" fill="#CBCFD1"/>
<path d="M415.071 31.7134C415.071 31.7134 415.584 39.4584 420.362 39.2194C425.14 38.9794 424.705 35.8444 424.705 35.8444C424.705 35.8444 424.121 31.8834 423.171 29.8904C422.221 27.8974 420.917 27.2144 420.917 27.2144C420.917 27.2144 417.88 31.1074 415.071 31.7134Z" fill="#CBCFD1"/>
<path d="M476.747 42.9094L482.913 47.6334C482.913 47.6334 488.792 41.3244 486.218 38.1494C483.644 34.9734 481.139 36.9024 479.966 38.0324C478.793 39.1624 476.747 42.9094 476.747 42.9094Z" fill="#CBCFD1"/>
<path d="M557.644 38.5004C557.644 38.5004 556.717 44.0794 558.828 45.6004C560.939 47.1214 562.724 48.4714 564.906 46.2084C567.088 43.9454 566.017 39.6454 566.017 39.6454L564.905 37.4854C564.905 37.4854 559.935 39.2014 557.644 38.5004Z" fill="#CBCFD1"/>
<path d="M620.839 47.7494L625.129 47.1714L629.73 47.5864C629.73 47.5864 629.397 39.0214 625.802 37.6374C622.207 36.2534 620.481 40.5004 620.289 41.9784C620.096 43.4564 620.839 47.7494 620.839 47.7494Z" fill="#CBCFD1"/>
<path d="M350.581 67.2094C349.572 66.3504 348.829 65.3004 348.458 64.0214C348.203 63.1424 347.751 61.2554 348.733 60.6594C349.771 60.0304 350.063 61.4264 350.129 62.1264C350.263 63.5524 350.86 64.9494 351.816 66.0194C352.565 66.8574 351.41 67.9154 350.581 67.2094Z" fill="#E5E5E5"/>
<path d="M350.039 57.6344C350.049 57.6264 350.125 57.5514 350.131 57.5534C350.106 57.5464 349.93 57.7834 350.159 57.4984C350.209 57.4174 350.275 57.3534 350.357 57.3074C350.488 57.2094 350.506 57.1964 350.411 57.2684C350.276 57.3584 350.415 57.2524 350.444 57.2204C350.734 56.8964 351.335 56.8444 351.691 57.0834C352.077 57.3424 352.264 57.7964 352.141 58.2514C352.048 58.5964 351.849 58.9414 351.529 59.1204C351.284 59.2574 350.97 59.3144 350.694 59.3064C350.304 59.2944 349.961 59.0514 349.817 58.6924C349.685 58.3594 349.738 57.8744 350.039 57.6344Z" fill="#E5E5E5"/>
<path d="M412.23 28.5234C410.109 30.7694 407.05 25.1054 408.159 23.2104C408.396 22.8054 408.734 22.5424 409.202 22.7254C409.871 22.9854 409.991 23.7934 410.105 24.4064C410.248 25.1784 410.472 26.0544 410.969 26.6814C411.226 27.0054 411.58 27.1564 411.863 27.4384C412.085 27.6594 412.152 27.9184 412.279 28.1874C412.335 28.3054 412.32 28.4284 412.23 28.5234Z" fill="#E5E5E5"/>
<path d="M409.877 20.0374C409.947 19.8304 410.021 19.6344 410.113 19.4354C410.257 19.1244 410.626 19.0074 410.935 18.9844C410.966 18.9824 410.998 18.9794 411.029 18.9774C411.389 18.9504 411.704 19.2674 411.799 19.5864C411.809 19.6214 411.82 19.6574 411.831 19.6934C411.927 20.0184 411.802 20.3714 411.571 20.6054C411.473 20.7044 411.361 20.7874 411.254 20.8754C410.975 21.1024 410.565 21.2034 410.242 20.9864C409.943 20.7844 409.757 20.3964 409.877 20.0374Z" fill="#E5E5E5"/>
<path d="M470.089 57.1004C468.683 56.4884 468.308 54.8994 468.137 53.4824C467.967 52.0714 468.089 50.2504 469.702 49.7864C470.277 49.6214 470.776 50.0194 470.961 50.5324C471.267 51.3804 470.889 52.2804 470.943 53.1564C470.998 54.0394 471.23 54.9064 471.503 55.7394C471.751 56.4994 470.87 57.4404 470.089 57.1004Z" fill="#E5E5E5"/>
<path d="M472.166 47.0534C472.263 46.9354 472.354 46.8024 472.461 46.6934C472.615 46.5374 472.833 46.4154 473.019 46.2944C473.337 46.0884 473.745 45.9594 474.122 46.0894C474.406 46.1874 474.717 46.3674 474.858 46.6454C474.996 46.9184 475.049 47.3084 474.946 47.6054C474.821 47.9674 474.577 48.2074 474.251 48.3984C473.898 48.6054 473.544 48.7254 473.146 48.8114C472.71 48.9054 472.191 48.7304 471.979 48.3114C471.753 47.8634 471.859 47.4284 472.166 47.0534Z" fill="#E5E5E5"/>
<path d="M554.551 36.5234C554.551 36.5234 562.297 40.7544 565.76 37.0004C569.223 33.2464 568.444 31.5634 567.891 28.9024C567.338 26.2424 564.805 22.9624 561.915 21.7754C557.795 20.0824 553.457 22.4744 552.345 25.4934C551.232 28.5114 551.268 34.6694 554.551 36.5234Z" fill="#EC442E"/>
<path d="M628.192 63.8254C628.192 63.8254 636.587 60.5544 634.834 53.1144C633.662 48.1434 631.852 48.3924 629.259 47.5784C626.667 46.7644 621.353 48.2604 618.906 50.2044C615.419 52.9754 615.392 57.9294 617.486 60.3724C619.579 62.8154 624.973 65.7874 628.192 63.8254Z" fill="#F2B15C"/>
<path d="M555.658 33.5884C555.804 33.6624 555.313 33.5504 555.235 33.5244C554.927 33.4224 554.69 33.2234 554.472 32.9914C554.047 32.5384 553.784 31.9924 553.623 31.3974C553.334 30.3294 553.232 28.7854 553.908 27.8494C554.811 26.5974 556.649 27.1304 556.739 28.6734C556.781 29.3964 556.492 30.0254 556.652 30.7614C556.727 31.1064 556.817 31.4444 556.875 31.7934C556.914 32.0244 556.929 32.2194 556.915 32.4504C556.913 32.5414 556.894 32.6274 556.858 32.7094C556.816 32.8244 556.818 32.8204 556.866 32.6964C557.072 33.4234 556.255 33.8904 555.658 33.5884Z" fill="#E5E5E5"/>
<path d="M556.864 25.4744C557.006 25.2514 557.137 25.0344 557.355 24.8734C557.594 24.6954 557.866 24.6154 558.151 24.5434C558.737 24.3954 559.342 24.7164 559.563 25.2694C559.778 25.8074 559.578 26.4924 559.04 26.7694C558.776 26.9054 558.521 27.0314 558.222 27.0654C557.946 27.0974 557.693 27.0234 557.43 26.9474C556.823 26.7724 556.52 26.0154 556.864 25.4744Z" fill="#E5E5E5"/>
<path d="M623.427 59.9674C622.961 60.1954 622.556 60.4704 621.951 60.3624C621.356 60.2564 620.81 59.8804 620.36 59.4904C619.442 58.6954 618.675 57.0934 619.506 55.9854C619.885 55.4794 620.561 55.2734 621.126 55.6174C621.378 55.7714 621.599 56.0274 621.74 56.2834C621.859 56.4994 621.955 56.8464 622.009 56.9534C622.216 57.3674 622.34 57.6524 622.679 57.9384C622.808 58.0474 623.03 58.1794 623.174 58.3294C623.287 58.4464 623.398 58.5824 623.478 58.7254C623.513 58.7794 623.539 58.8384 623.557 58.9014C623.651 59.1164 623.615 59.0724 623.45 58.7694C623.838 59.0584 623.935 59.7184 623.427 59.9674Z" fill="#E5E5E5"/>
<path d="M621.307 52.7394C621.106 52.3064 621.074 51.8414 621.36 51.4354C621.821 50.7814 622.704 50.7984 623.141 51.4684C623.412 51.8844 623.362 52.3484 623.145 52.7734C622.793 53.4634 621.633 53.4414 621.307 52.7394Z" fill="#E5E5E5"/>
<path d="M358.423 45.5894C358.418 45.5894 358.414 45.5894 358.409 45.5894C357.172 45.5724 356.026 46.3214 355.002 47.8144C353.763 49.6214 352.96 51.7254 352.68 53.8974L354.149 54.0874C354.399 52.1464 355.116 50.2664 356.224 48.6514C356.723 47.9234 357.504 47.0574 358.389 47.0694C358.391 47.0694 358.393 47.0694 358.395 47.0694C359.029 47.0814 359.698 47.6014 360.023 48.3374C360.391 49.1704 360.366 50.1754 360.302 50.9564C360.191 52.3094 359.914 53.6464 359.478 54.9304L360.88 55.4074C361.356 54.0084 361.658 52.5514 361.778 51.0764C361.856 50.1204 361.881 48.8774 361.377 47.7384C360.818 46.4744 359.632 45.6114 358.423 45.5894Z" fill="#424242"/>
<path d="M421.492 26.8134L420.563 27.9664C422.222 29.3024 423.008 30.3464 423.275 31.5704C423.553 32.8474 423.841 34.1664 423.845 35.4594C423.847 36.0784 423.779 36.5484 423.632 36.9374C423.192 38.0994 421.763 38.8784 420.384 38.7104C419.068 38.5514 417.804 37.6524 417.003 36.3074C416.314 35.1494 415.945 33.7064 415.875 31.8934L414.395 31.9514C414.476 34.0164 414.912 35.6894 415.73 37.0644C416.764 38.8014 418.436 39.9664 420.205 40.1804C422.263 40.4304 424.335 39.2614 425.016 37.4614C425.23 36.8974 425.328 36.2594 425.325 35.4534C425.32 34.0034 425.015 32.6054 424.721 31.2544C424.376 29.6694 423.441 28.3824 421.492 26.8134Z" fill="#424242"/>
<path d="M419.721 16.1664C420.497 16.8644 422.367 18.7074 422.987 20.7194C423.827 23.4474 423.385 25.7174 421.596 27.8644L421.546 27.8224C420.877 28.6864 420.156 29.5284 419.302 30.2584C418.272 31.1384 416.62 32.1954 414.601 32.2334C413.656 32.2504 412.754 32.0384 411.996 31.8284C410.638 31.4524 408.677 30.7784 407.332 29.2844C406.189 28.0144 405.559 26.2304 405.558 24.2624C405.557 22.5024 406.094 20.8224 406.646 19.2534C407.469 16.9094 409.955 15.3634 411.329 14.9394C412.543 14.5644 413.737 14.3914 414.861 14.4134C416.771 14.4484 418.477 15.0454 419.721 16.1664ZM414.573 30.7524C415.806 30.7294 417.144 30.1534 418.34 29.1314C419.47 28.1654 420.39 26.9164 421.279 25.7074L421.283 25.7104C422.02 24.3324 422.103 22.8804 421.572 21.1554C421.218 20.0034 420.155 18.5504 418.731 17.2674C417.145 15.8394 414.542 15.4974 411.765 16.3534C410.875 16.6284 408.703 17.8624 408.043 19.7424C407.534 21.1914 407.038 22.7334 407.039 24.2604C407.04 25.8624 407.535 27.2954 408.433 28.2924C409.519 29.4984 411.212 30.0734 412.392 30.4004C412.998 30.5684 413.705 30.7384 414.404 30.7514C414.46 30.7534 414.516 30.7534 414.573 30.7524Z" fill="#424242"/>
<path d="M483.382 36.0014C482.308 35.9814 481.151 36.4024 479.995 37.2404C477.892 38.7654 476.368 41.0954 475.815 43.6344L477.262 43.9494C477.739 41.7614 479.052 39.7534 480.864 38.4394C481.609 37.8994 482.723 37.3004 483.789 37.5314C484.773 37.7424 485.613 38.7054 485.833 39.8744C486.082 41.2004 485.594 42.5334 485.142 43.4184C484.764 44.1584 483.962 45.1664 483.255 46.0564C482.853 46.5624 482.473 47.0404 482.181 47.4534L483.391 48.3074C483.658 47.9294 484.025 47.4674 484.414 46.9784C485.164 46.0344 486.015 44.9644 486.46 44.0934C487.26 42.5294 487.546 40.9764 487.288 39.6024C486.956 37.8354 485.674 36.4214 484.099 36.0844C483.864 36.0334 483.625 36.0064 483.382 36.0014Z" fill="#424242"/>
<path d="M480.061 44.1594C481.305 45.0734 482.33 46.2024 483.297 47.3384C486.386 49.6834 485.31 55.4654 483.849 57.9384C482.471 60.2704 478.892 61.5524 476.224 61.5744C474.188 61.5974 468.994 60.3884 466.742 56.7064C465.163 54.1244 465.342 50.9404 467.273 47.2434C468.095 45.6694 469.601 44.3214 471.628 43.3444C472.769 42.7954 473.744 42.5034 474.697 42.4254C474.9 42.4084 475.105 42.4024 475.312 42.4064C476.882 42.4354 478.546 43.0464 480.061 44.1594ZM476.213 60.0934C478.457 60.0754 481.527 58.9574 482.574 57.1844C483.732 55.2234 484.559 50.8454 482.797 48.8824L482.719 48.9484C481.641 47.6654 480.526 46.3384 479.184 45.3534C477.757 44.3044 476.206 43.7874 474.817 43.9014C474.051 43.9634 473.242 44.2104 472.271 44.6784C471.059 45.2624 469.437 46.3004 468.586 47.9294C466.913 51.1334 466.718 53.8264 468.006 55.9344C469.926 59.0734 474.502 60.0634 476.109 60.0934C476.145 60.0934 476.18 60.0934 476.213 60.0934Z" fill="#424242"/>
<path d="M565.908 37.4714L564.524 37.9984C565.063 39.4164 565.622 40.8834 565.66 42.3724C565.691 43.5704 565.3 45.1314 564.108 45.9184C563.367 46.4074 562.362 46.5424 561.414 46.2774C560.524 46.0284 559.675 45.4334 559.024 44.6024C558.642 44.1144 558.392 43.6284 558.282 43.1574C558.158 42.6254 558.191 42.0254 558.222 41.4434C558.264 40.6764 558.344 39.2814 558.389 38.5154L556.91 38.4294C556.865 39.1974 556.785 40.5944 556.743 41.3634C556.707 42.0164 556.667 42.7564 556.839 43.4944C556.998 44.1764 557.341 44.8564 557.858 45.5154C558.701 46.5924 559.822 47.3694 561.014 47.7034C562.369 48.0814 563.83 47.8774 564.924 47.1544C566.343 46.2154 567.192 44.3684 567.139 42.3344C567.095 40.5924 566.464 38.9344 565.908 37.4714Z" fill="#424242"/>
<path d="M568.761 27.2074C570.038 30.8684 568.879 35.2944 565.941 37.9704L565.662 37.6644C563.856 38.8674 561.384 39.3654 558.611 39.0554C556.249 38.7884 554.467 38.0104 553.313 36.7414C552.063 35.3674 551.639 33.5274 551.41 32.0784C551.251 31.0764 551.069 29.5714 551.322 28.0694C551.976 24.1714 555.643 21.0114 559.671 20.8744C559.819 20.8694 559.966 20.8684 560.114 20.8714C563.894 20.9414 567.483 23.5464 568.761 27.2074ZM565.976 35.4304L566.118 35.5514C567.74 33.2884 568.26 30.2674 567.362 27.6944C566.261 24.5384 562.963 22.2444 559.721 22.3534C556.372 22.4674 553.324 25.0855 552.782 28.3135C552.615 29.3075 552.643 30.3964 552.873 31.8454C553.071 33.0904 553.423 34.6595 554.409 35.7435C555.314 36.7385 556.784 37.3564 558.778 37.5814C559.081 37.6154 559.476 37.6484 559.932 37.6564C561.686 37.6904 564.326 37.3684 565.976 35.4304Z" fill="#424242"/>
<path d="M624.922 36.8794C623.234 36.8474 621.509 37.9124 620.562 39.6344C619.627 41.3344 619.524 43.2984 619.547 44.9964C619.56 45.9164 619.611 46.9794 620.064 47.9504L621.407 47.3244C621.078 46.6194 621.039 45.7424 621.029 44.9754C621.009 43.4724 621.092 41.7464 621.861 40.3474C622.504 39.1794 623.885 38.1324 625.283 38.3994C626.799 38.6864 627.706 40.3354 628.023 41.6604C628.453 43.4624 629.04 46.1634 629.331 47.8414L630.79 47.5884C630.48 45.8014 629.885 43.0854 629.463 41.3174C629.024 39.4784 627.767 37.3634 625.559 36.9454C625.348 36.9054 625.135 36.8834 624.922 36.8794Z" fill="#424242"/>
<path d="M629.398 46.9034C629.67 46.9284 629.938 46.9554 630.2 46.9854C630.668 47.0324 631.115 47.0724 631.535 47.0994L631.528 47.1974C632.732 47.4614 633.733 47.9374 634.379 48.9434C636.498 52.2444 635.939 57.4804 634.206 60.4394C632.82 62.8044 630.192 64.5104 627.175 65.0004C623.441 65.6074 619.553 64.2524 617.27 61.5454C614.794 58.6104 614.423 54.2464 616.388 51.1704C617.726 49.0764 620.07 47.5534 622.988 46.8824C623.873 46.6784 624.863 46.6214 625.883 46.6404C627.053 46.6634 628.264 46.7864 629.398 46.9034ZM626.936 63.5394C629.521 63.1184 631.761 61.6794 632.926 59.6914C634.445 57.0994 634.89 52.4834 633.131 49.7444C632.619 48.9464 631.646 48.6454 629.986 48.4534C629.772 48.4324 629.554 48.4094 629.332 48.3864C627.305 48.1774 625.007 47.9394 623.318 48.3274C620.78 48.9104 618.762 50.2044 617.635 51.9694C616.036 54.4724 616.365 58.1794 618.4 60.5924C620.004 62.4944 622.549 63.6144 625.196 63.6634C625.775 63.6734 626.357 63.6334 626.936 63.5394Z" fill="#424242"/>
<path d="M354.397 50.6684C355.759 49.5434 359.002 49.9044 360.44 50.7394C361.093 51.1184 360.596 51.9924 359.937 51.8724C358.95 51.6924 358.06 51.3294 357.036 51.2834C356.201 51.2454 355.369 51.5114 354.557 51.3294C354.279 51.2674 354.174 50.8524 354.397 50.6684Z" fill="#424242"/>
<path d="M355.973 48.4454C356.966 48.1064 357.733 48.1244 358.779 48.2354C359.588 48.3214 360.528 48.2944 361.119 48.9004C361.387 49.1744 361.23 49.5994 360.889 49.7084C360.085 49.9664 359.224 49.5094 358.422 49.3374C357.531 49.1474 356.777 48.9894 355.947 48.6134C355.869 48.5784 355.907 48.4684 355.973 48.4454Z" fill="#424242"/>
<path d="M415.784 34.7074C417.453 33.5464 420.968 33.3884 421.715 31.1774C421.876 30.7004 422.616 30.5414 422.86 31.0494C423.535 32.4564 421.899 33.2944 420.831 33.7834C419.393 34.4434 417.421 35.3284 415.822 35.0464C415.648 35.0154 415.669 34.7874 415.784 34.7074Z" fill="#424242"/>
<path d="M417.53 37.3444C418.104 36.7184 419.218 36.5454 419.965 36.1424C420.788 35.6974 421.486 35.0144 422.411 34.7934C422.76 34.7104 423.117 35.0424 422.997 35.4024C422.634 36.4954 421.559 37.0714 420.553 37.4984C419.714 37.8544 418.454 38.3544 417.59 37.8904C417.381 37.7794 417.387 37.4994 417.53 37.3444Z" fill="#424242"/>
<path d="M478.366 40.5614C479.708 40.3304 481.468 41.4054 482.582 42.0774C483.609 42.6984 485.515 43.7384 485.549 45.0644C485.556 45.3104 485.319 45.5284 485.078 45.5184C484.502 45.4944 484.329 45.3434 483.917 44.9634C483.26 44.3574 482.578 43.8014 481.841 43.2934C481.237 42.8774 480.618 42.4914 479.967 42.1534C479.329 41.8224 478.692 41.6684 478.203 41.1384C478.036 40.9594 478.098 40.6074 478.366 40.5614Z" fill="#424242"/>
<path d="M480.308 38.4434C480.663 38.4574 481.063 38.4294 481.409 38.5174C481.823 38.6234 482.273 38.8904 482.655 39.0754C483.373 39.4224 484.267 39.8454 484.513 40.6534C484.617 40.9934 484.318 41.3154 483.987 41.3174C483.224 41.3224 482.582 40.6764 482.014 40.2244C481.687 39.9644 481.3 39.7284 480.999 39.4404C480.719 39.1734 480.511 38.8304 480.273 38.5224C480.251 38.4924 480.264 38.4424 480.308 38.4434Z" fill="#424242"/>
<path d="M558.119 40.3794C557.989 40.2534 558.803 40.2404 558.992 40.2354C559.7 40.2184 560.396 40.2364 561.104 40.1724C562.141 40.0784 563.349 39.4284 564.324 39.9264C564.529 40.0314 564.574 40.2774 564.537 40.4794C564.246 42.0514 561.657 42.0154 560.441 41.9234C559.471 41.8504 557.614 41.9304 557.523 40.6134C557.5 40.2964 557.919 40.1854 558.119 40.3794Z" fill="#424242"/>
<path d="M558.581 43.5514C559.477 43.7744 560.392 43.8734 561.314 43.7894C562.185 43.7094 562.762 43.5424 563.621 43.8064C563.992 43.9204 564.057 44.3524 563.82 44.6224C562.517 46.1104 559.828 45.5084 558.171 44.9354C557.295 44.6324 557.676 43.3264 558.581 43.5514Z" fill="#424242"/>
<path d="M620.958 45.3424C622.058 44.6254 623.203 44.0894 624.494 43.8274C625.508 43.6214 626.806 43.3274 627.727 43.8864C628.008 44.0574 628.033 44.5354 627.712 44.6854C626.818 45.1024 625.782 44.8984 624.812 45.0684C623.638 45.2744 622.486 45.6384 621.411 46.1504C620.87 46.4074 620.458 45.6684 620.958 45.3424Z" fill="#424242"/>
<path d="M620.551 41.6204C621.428 40.9544 622.447 40.5024 623.501 40.1834C624.515 39.8774 625.589 39.4174 626.467 40.1874C626.742 40.4284 626.722 40.8484 626.572 41.1434C626.111 42.0534 624.917 42.0414 624.023 42.2304C623.017 42.4424 621.986 42.6414 620.956 42.6564C620.473 42.6624 620.127 41.9424 620.551 41.6204Z" fill="#424242"/>
<path d="M361.902 54.9214C365.52 58.0024 366.356 63.7484 363.763 67.7314C363.076 68.7874 362.246 69.6184 361.296 70.2014C360.052 70.9654 358.498 71.3674 356.545 71.4294C356.22 71.4394 355.889 71.4424 355.554 71.4364C352.851 71.3854 349.259 70.7424 347.507 67.9914C344.789 64.0934 345.44 58.3234 348.958 55.1284C350.722 53.5274 353.201 52.6364 355.76 52.6834C358.077 52.7264 360.257 53.5214 361.902 54.9214ZM356.498 69.9484C358.186 69.8944 359.502 69.5644 360.521 68.9384C361.282 68.4714 361.955 67.7934 362.521 66.9234C364.684 63.5994 363.961 58.6194 360.941 56.0484C359.557 54.8704 357.707 54.2004 355.733 54.1634C353.548 54.1224 351.442 54.8734 349.954 56.2234C347.018 58.8894 346.454 63.8904 348.739 67.1684C350.155 69.3914 353.242 69.9104 355.582 69.9534C355.891 69.9614 356.198 69.9584 356.498 69.9484Z" fill="#424242"/>
</svg>
