<svg width="1920" height="280" viewBox="0 0 1920 280" fill="none" xmlns="http://www.w3.org/2000/svg">
<path d="M1920 20.3985L1874.24 20.1233C1828.16 19.7564 1736.64 19.206 1645.44 24.0678C1554.24 28.9296 1463.36 39.387 1372.16 35.9929C1280.96 32.5989 1189.44 15.5367 1097.6 11.5005C1005.76 7.55604 914.24 16.7292 822.4 19.9399C730.56 23.1505 639.04 20.3986 547.84 15.5368C456.64 10.5832 365.76 3.6116 274.56 1.13484C183.36 -1.34192 91.84 0.85964 45.76 1.86869L0 2.96949L0 280L45.76 280C91.84 280 183.36 280 274.56 280C365.76 280 456.64 280 547.84 280C639.04 280 730.56 280 822.4 280C914.24 280 1005.76 280 1097.6 280C1189.44 280 1280.96 280 1372.16 280C1463.36 280 1554.24 280 1645.44 280C1736.64 280 1828.16 280 1874.24 280L1920 280V20.3985Z" fill="white"/>
</svg>
