<svg width="148" height="178" viewBox="0 0 148 178" fill="none" xmlns="http://www.w3.org/2000/svg">
<path d="M66.5527 0.544678H65.5527V25.7667H66.5527V0.544678Z" fill="#010101"/>
<path d="M58.6257 37.5107V59.9377C58.6257 59.9377 7.61579 60.8167 1.01979 109.629C-5.57621 158.44 41.0068 177.349 70.9388 177.349C117.991 177.349 146.134 154.043 146.134 121.556C146.134 79.7257 113.154 57.8497 78.8538 53.7817V37.5117H58.6257V37.5107Z" fill="#010101"/>
<path d="M53.5038 23.4366H83.4258C83.4258 23.4366 83.4257 48.6716 79.0997 48.6716C76.3537 48.6716 74.5148 42.5426 74.5148 42.5426C74.5148 42.5426 72.5558 50.8346 68.4648 50.8346C66.0938 50.8346 62.5168 41.4616 62.5168 41.4616C62.5168 41.4616 62.0988 49.2936 57.8298 49.2936C52.4218 49.2936 53.5038 23.4366 53.5038 23.4366Z" fill="#DC3026"/>
<path d="M56.0598 154.042C56.0568 154.042 56.0538 154.042 56.0508 154.042C47.4638 154.031 39.4728 135.189 35.0908 116.666C33.6228 120.287 31.8628 123.824 29.8038 127.086C22.5358 138.599 13.0878 144.351 2.47779 143.723C2.06379 143.699 1.74877 143.344 1.77277 142.93C1.79777 142.516 2.18674 142.204 2.56574 142.226C15.2347 142.971 23.6848 133.972 28.5358 126.286C30.9318 122.49 32.9198 118.325 34.5078 114.104C32.6618 105.68 31.5977 97.5057 31.6017 91.4047C31.6067 83.7247 33.2048 79.8297 36.3508 79.8297C37.1948 79.8297 38.3968 80.1837 39.3278 81.8717C41.9558 86.6397 40.9928 100.667 36.0548 114.169C40.3168 133.12 48.5128 152.532 56.0548 152.542C56.0568 152.542 56.0598 152.542 56.0618 152.542C58.7748 152.542 61.3837 150.408 63.8187 146.199C66.9557 140.777 69.6487 131.954 71.3157 121.863C68.6317 111.681 66.9708 101.521 66.9708 95.5077C66.9708 93.3207 67.1668 91.6047 67.5558 90.4067C68.1738 88.4957 69.2317 88.0937 70.0087 88.0937C70.6987 88.0937 71.6978 88.3987 72.5358 89.8507C75.1708 94.4197 75.0398 108.193 72.8198 121.734C76.9628 137.284 83.3998 152.541 89.1498 152.541C94.3358 152.541 100.178 144.587 105.176 130.719C106.683 126.54 108.047 121.997 109.211 117.366C105.875 105.139 104.159 91.9147 104.922 84.0707C105.606 77.0337 108.119 75.7737 110.123 75.9737C114.58 76.3977 115.117 84.8927 114.781 91.9427C114.441 99.0967 113.001 108.241 110.748 117.297C110.844 117.644 110.94 117.991 111.039 118.336C114.795 131.528 119.512 139.96 123.35 140.341C129.854 141.01 140.531 127.054 146.074 105.285C146.176 104.884 146.59 104.643 146.985 104.743C147.387 104.845 147.63 105.254 147.527 105.655C143.024 123.341 132.792 141.863 123.833 141.864C123.622 141.864 123.412 141.854 123.202 141.833C117.093 141.226 112.184 127.441 110.009 120.157C105.304 137.675 97.6458 154.04 89.1508 154.04C82.7938 154.04 76.4738 140.044 72.2158 125.142C70.5998 133.605 68.1768 141.659 65.1168 146.949C62.3938 151.657 59.3468 154.042 56.0598 154.042ZM70.0078 89.5947C69.6008 89.5947 69.2548 90.0237 68.9818 90.8687C68.6418 91.9177 68.4697 93.4777 68.4697 95.5077C68.4697 101.007 69.7828 109.396 71.8848 118.062C71.9978 117.227 72.1038 116.385 72.2018 115.537C73.5488 103.958 73.1598 93.9367 71.2358 90.6007C70.8508 89.9337 70.4378 89.5947 70.0078 89.5947ZM109.778 77.4587C107.548 77.4587 106.718 81.1057 106.415 84.2167C105.723 91.3297 107.128 103.013 109.954 114.283C111.764 106.43 112.968 98.5117 113.283 91.8727C113.701 83.0897 112.466 77.7047 109.98 77.4677C109.912 77.4627 109.845 77.4587 109.778 77.4587ZM36.3508 81.3297C34.2898 81.3297 33.1067 85.0017 33.1017 91.4057C33.0987 97.1107 33.9727 104.16 35.4617 111.421C39.6017 99.0887 40.3668 86.8677 38.0128 82.5967C37.3148 81.3297 36.5888 81.3297 36.3508 81.3297Z" fill="#DC3026"/>
<path d="M58.0969 141.089C58.0969 142.763 56.7399 144.12 55.0659 144.12C53.3919 144.12 52.0359 142.763 52.0359 141.089C52.0359 139.415 53.3929 138.058 55.0659 138.058C56.7399 138.059 58.0969 139.416 58.0969 141.089Z" fill="white"/>
<path d="M17.7668 125.918C17.7668 127.592 16.4098 128.949 14.7368 128.949C13.0638 128.949 11.7058 127.592 11.7058 125.918C11.7058 124.244 13.0628 122.887 14.7368 122.887C16.4108 122.887 17.7668 124.245 17.7668 125.918Z" fill="white"/>
<path d="M91.8689 141.09C93.5429 141.09 94.8999 139.733 94.8999 138.059C94.8999 136.385 93.5429 135.028 91.8689 135.028C90.1949 135.028 88.8379 136.385 88.8379 138.059C88.8379 139.733 90.1949 141.09 91.8689 141.09Z" fill="white"/>
<path d="M129.061 125.918C129.061 127.592 127.704 128.949 126.03 128.949C124.356 128.949 122.999 127.592 122.999 125.918C122.999 124.244 124.356 122.887 126.03 122.887C127.704 122.888 129.061 124.245 129.061 125.918Z" fill="white"/>
</svg>
