<svg width="104" height="137" viewBox="0 0 104 137" fill="none" xmlns="http://www.w3.org/2000/svg">
<path d="M7.88102 63.6459C7.57402 85.1789 8.81702 98.2539 7.88102 124.066C7.40602 137.156 10.748 134.799 50.279 134.666C57.699 134.642 71.838 134.104 79.961 133.606C93.756 132.76 98.336 135.349 97.981 121.946C97.352 98.202 95.844 81.2719 95.86 62.5859" fill="#2D3853"/>
<path d="M14.475 71.2551C12.524 71.4701 11.53 72.867 11.928 74.959C12.26 76.707 13.674 77.422 15.535 77.056C19.381 76.303 17.799 70.5891 14.475 71.2551Z" fill="#6183B3"/>
<path d="M33.196 71.2551C31.243 71.4701 30.251 72.867 30.649 74.959C30.981 76.707 32.395 77.422 34.256 77.056C38.1 76.303 36.52 70.5891 33.196 71.2551Z" fill="#6183B3"/>
<path d="M51.915 71.2551C49.964 71.4701 48.972 72.867 49.368 74.959C49.7 76.707 51.114 77.422 52.975 77.056C56.821 76.303 55.239 70.5891 51.915 71.2551Z" fill="#6183B3"/>
<path d="M89.3559 71.2551C87.4029 71.4701 86.4109 72.867 86.8089 74.959C87.1409 76.707 88.5529 77.422 90.4159 77.056C94.2599 76.303 92.6779 70.5891 89.3559 71.2551Z" fill="#6183B3"/>
<path d="M70.635 71.2551C68.684 71.4701 67.69 72.867 68.088 74.959C68.42 76.707 69.834 77.422 71.695 77.056C75.542 76.303 73.96 70.5891 70.635 71.2551Z" fill="#6183B3"/>
<path d="M23.836 81.6561C21.883 81.8711 20.8909 83.2681 21.2869 85.3591C21.6189 87.1071 23.033 87.8221 24.894 87.4571C28.741 86.7031 27.159 80.9891 23.836 81.6561Z" fill="#6183B3"/>
<path d="M42.5549 81.6561C40.6039 81.8711 39.6099 83.2681 40.0079 85.3591C40.3399 87.1071 41.7539 87.8221 43.6149 87.4571C47.4609 86.7031 45.8789 80.9891 42.5549 81.6561Z" fill="#6183B3"/>
<path d="M79.995 81.6561C78.044 81.8711 77.052 83.2681 77.448 85.3591C77.78 87.1071 79.194 87.8221 81.055 87.4571C84.901 86.7031 83.319 80.9891 79.995 81.6561Z" fill="#6183B3"/>
<path d="M61.276 81.6561C59.323 81.8711 58.331 83.2681 58.729 85.3591C59.061 87.1071 60.475 87.8221 62.336 87.4571C66.18 86.7031 64.6 80.9891 61.276 81.6561Z" fill="#6183B3"/>
<path d="M14.475 92.0551C12.524 92.2711 11.53 93.6681 11.928 95.7591C12.26 97.5071 13.674 98.2221 15.535 97.8571C19.381 97.1031 17.799 91.3891 14.475 92.0551Z" fill="#6183B3"/>
<path d="M33.196 92.0551C31.243 92.2711 30.251 93.6681 30.649 95.7591C30.981 97.5071 32.395 98.2221 34.256 97.8571C38.1 97.1031 36.52 91.3891 33.196 92.0551Z" fill="#6183B3"/>
<path d="M51.915 92.0551C49.964 92.2711 48.972 93.6681 49.368 95.7591C49.7 97.5071 51.114 98.2221 52.975 97.8571C56.821 97.1031 55.239 91.3891 51.915 92.0551Z" fill="#6183B3"/>
<path d="M89.3559 92.0551C87.4029 92.2711 86.4109 93.6681 86.8089 95.7591C87.1409 97.5071 88.5529 98.2221 90.4159 97.8571C94.2599 97.1031 92.6779 91.3891 89.3559 92.0551Z" fill="#6183B3"/>
<path d="M70.635 92.0551C68.684 92.2711 67.69 93.6681 68.088 95.7591C68.42 97.5071 69.834 98.2221 71.695 97.8571C75.542 97.1031 73.96 91.3891 70.635 92.0551Z" fill="#6183B3"/>
<path d="M23.836 102.456C21.883 102.671 20.8909 104.068 21.2869 106.16C21.6189 107.907 23.033 108.623 24.894 108.257C28.741 107.503 27.159 101.79 23.836 102.456Z" fill="#6183B3"/>
<path d="M42.5549 102.456C40.6039 102.671 39.6099 104.068 40.0079 106.16C40.3399 107.907 41.7539 108.623 43.6149 108.257C47.4609 107.503 45.8789 101.79 42.5549 102.456Z" fill="#6183B3"/>
<path d="M79.995 102.456C78.044 102.671 77.052 104.068 77.448 106.16C77.78 107.907 79.194 108.623 81.055 108.257C84.901 107.503 83.319 101.79 79.995 102.456Z" fill="#6183B3"/>
<path d="M61.276 102.456C59.323 102.671 58.331 104.068 58.729 106.16C59.061 107.907 60.475 108.623 62.336 108.257C66.18 107.503 64.6 101.79 61.276 102.456Z" fill="#6183B3"/>
<path d="M14.475 113.895C12.524 114.111 11.53 115.508 11.928 117.599C12.26 119.347 13.674 120.062 15.535 119.697C19.381 118.943 17.799 113.229 14.475 113.895Z" fill="#6183B3"/>
<path d="M33.196 113.895C31.243 114.111 30.251 115.508 30.649 117.599C30.981 119.347 32.395 120.062 34.256 119.697C38.1 118.943 36.52 113.229 33.196 113.895Z" fill="#6183B3"/>
<path d="M51.915 113.895C49.964 114.111 48.972 115.508 49.368 117.599C49.7 119.347 51.114 120.062 52.975 119.697C56.821 118.943 55.239 113.229 51.915 113.895Z" fill="#6183B3"/>
<path d="M89.3559 113.895C87.4029 114.111 86.4109 115.508 86.8089 117.599C87.1409 119.347 88.5529 120.062 90.4159 119.697C94.2599 118.943 92.6779 113.229 89.3559 113.895Z" fill="#6183B3"/>
<path d="M70.635 113.895C68.684 114.111 67.69 115.508 68.088 117.599C68.42 119.347 69.834 120.062 71.695 119.697C75.542 118.943 73.96 113.229 70.635 113.895Z" fill="#6183B3"/>
<path d="M23.836 124.295C21.883 124.51 20.8909 125.907 21.2869 127.999C21.6189 129.747 23.033 130.462 24.894 130.096C28.741 129.343 27.159 123.629 23.836 124.295Z" fill="#6183B3"/>
<path d="M42.5549 124.295C40.6039 124.51 39.6099 125.907 40.0079 127.999C40.3399 129.747 41.7539 130.462 43.6149 130.096C47.4609 129.343 45.8789 123.629 42.5549 124.295Z" fill="#6183B3"/>
<path d="M79.995 124.295C78.044 124.51 77.052 125.907 77.448 127.999C77.78 129.747 79.194 130.462 81.055 130.096C84.901 129.343 83.319 123.629 79.995 124.295Z" fill="#6183B3"/>
<path d="M61.276 124.295C59.323 124.51 58.331 125.907 58.729 127.999C59.061 129.747 60.475 130.462 62.336 130.096C66.18 129.343 64.6 123.629 61.276 124.295Z" fill="#6183B3"/>
<path d="M50.977 44.207C33.676 44.35 20.4791 43.368 4.33806 44.97C-0.00194407 45.402 -0.220962 56.981 1.30104 67.058C38.024 67.007 62.4471 67.058 101.971 66.33C104.317 66.288 103.491 43.738 99.354 43.738C76.948 43.738 64.477 43.987 50.977 44.207Z" fill="#D53261"/>
<path d="M49.3931 41.876C43.1211 40.59 13.9191 33.924 19.7031 23.757C26.1791 12.373 44.2841 39.39 47.8511 43.905C48.7871 45.091 50.3821 43.583 49.8141 42.39C46.0111 34.405 32.8111 8.53004 46.4281 3.87604C63.7851 -2.05596 52.2651 34.913 49.9141 41.628C50.7181 41.85 51.5201 42.071 52.3241 42.293C55.0571 34.266 76.5901 10.609 81.6011 27.906C83.5311 34.568 72.0171 37.715 67.6911 38.905C61.6261 40.573 55.2721 41.417 49.0001 41.77C47.3971 41.86 47.3891 44.361 49.0001 44.27C58.2461 43.75 89.3991 41.157 83.3961 25.441C76.3861 7.09402 52.9921 32.589 49.9151 41.628C49.3931 43.162 51.7971 43.802 52.3251 42.293C55.5481 33.088 67.3171 -2.56997 46.5911 1.25003C28.7941 4.53103 43.4541 34.83 47.6561 43.65C48.3101 43.145 48.9651 42.64 49.6191 42.135C44.3301 35.441 27.3031 8.47503 17.5451 22.493C8.83608 35.005 41.9411 42.892 48.7301 44.284C50.3021 44.609 50.9721 42.2 49.3931 41.876Z" fill="#192544"/>
<path d="M48.0751 43.2871C48.0881 73.9651 49.3731 104.624 49.4011 135.302C49.4031 136.914 51.9031 136.914 51.9011 135.302C51.8731 104.625 50.5871 73.9651 50.5751 43.2871C50.5741 41.6741 48.0741 41.6741 48.0751 43.2871Z" fill="#192544"/>
<path d="M47.4031 42.2C28.7371 49.192 32.986 75.676 22.207 89.102C21.208 90.346 22.9651 92.127 23.9751 90.87C29.0751 84.518 30.9381 76.251 33.0961 68.57C35.5891 59.697 38.461 48.21 48.068 44.612C49.562 44.051 48.9161 41.634 47.4031 42.2Z" fill="#192544"/>
<path d="M48.729 44.2871C56.762 46.7011 61.211 55.6621 64.941 62.5271C68.953 69.9121 71.504 77.5771 78.386 82.9201C79.643 83.8961 81.426 82.1401 80.153 81.1521C67.297 71.1711 66.568 47.0371 49.392 41.8751C47.845 41.4111 47.189 43.8241 48.729 44.2871Z" fill="#192544"/>
</svg>
