<svg width="149" height="169" viewBox="0 0 149 169" fill="none" xmlns="http://www.w3.org/2000/svg">
<path d="M31.9718 150.489L45.1638 118.499L59.3458 148.511L77.8148 113.556L86.3898 143.638L107.497 108.214L110.795 138.579L136.52 117.042L137.569 140.837C143.176 132.713 146.155 123.151 146.155 112.613C146.155 70.7817 113.174 48.9067 78.8748 44.8387V28.5687H58.6467V50.9957C58.6467 50.9957 7.63679 51.8747 1.04079 100.687C-1.48221 119.354 3.77878 133.643 12.9058 144.179L15.1517 131.723L31.9718 150.489Z" fill="#010101"/>
<path d="M70.9587 168.403C102.748 168.403 125.889 157.755 137.568 140.834L136.519 117.039L110.794 138.576L107.496 108.211L86.3887 143.635L77.8138 113.553L59.3447 148.508L45.1628 118.496L31.9708 150.486L15.1508 131.716L12.9048 144.172C27.6448 161.187 52.4747 168.403 70.9587 168.403Z" fill="#018D49"/>
<path d="M69.6458 0.292725H68.6458V16.6147H69.6458V0.292725Z" fill="#010101"/>
<path d="M54.2297 14.3617H84.1517C84.1517 14.3617 84.1517 39.5967 79.8257 39.5967C77.0807 39.5967 75.2407 33.4677 75.2407 33.4677C75.2407 33.4677 73.2817 41.7597 69.1907 41.7597C66.8197 41.7597 63.2427 32.3867 63.2427 32.3867C63.2427 32.3867 62.8247 40.2187 58.5567 40.2187C53.1477 40.2187 54.2297 14.3617 54.2297 14.3617Z" fill="#018D49"/>
<path d="M6.72479 141.071L5.7688 140.778L12.6408 118.418L28.7688 130.905L41.0628 97.4217L60.5418 124.78L75.1598 88.3777L91.7068 117.556L109.266 91.8907L118.586 115.534L139.07 97.6087L148.209 125.66L147.258 125.971L138.588 99.3587L118.176 117.222L109.027 94.0127L91.6268 119.442L75.3148 90.6767L60.7878 126.851L41.3488 99.5467L29.2378 132.532L13.1718 120.094L6.72479 141.071Z" fill="white"/>
<path d="M3.55877 129.777C3.37977 129.309 4.93676 118.755 8.18676 98.4047L8.34875 97.3947L27.0917 117.484L37.3658 76.2087L58.5547 107.964L71.8907 71.6117L93.2678 101.359L111.5 69.5907L124.483 97.4357L139.717 83.6977L140.387 84.4397L124.15 99.0837L111.409 71.7607L93.3617 103.203L72.1797 73.7267L58.8168 110.157L37.7897 78.6457L27.6168 119.514L9.01275 99.5737C7.11875 111.451 4.46875 128.543 4.51775 129.529L4.16174 129.546L3.55877 129.777Z" fill="#018D49"/>
<path d="M22.9968 91.3176L3.86182 85.0026L4.1748 84.0536L22.4768 90.0936L35.4308 63.2806L56.2378 80.9146L70.4608 55.6497L92.6468 79.7586L111.159 58.6656L126.646 79.6896L132.613 72.3536L133.389 72.9846L126.606 81.3226L111.091 60.2596L92.6648 81.2546L70.6558 57.3397L56.5158 82.4597L35.7688 64.8787L22.9968 91.3176Z" fill="white"/>
</svg>
