<svg width="147" height="170" viewBox="0 0 147 170" fill="none" xmlns="http://www.w3.org/2000/svg">
<path d="M68.4878 0.252686H67.4878V17.5137H68.4878V0.252686Z" fill="#010101"/>
<path d="M19.7168 139.678C33.1308 139.678 33.1308 122.615 46.5458 122.615C59.9648 122.615 59.9648 139.678 73.3838 139.678C86.8038 139.678 86.8038 122.615 100.223 122.615C113.645 122.615 113.645 139.678 127.066 139.678C136.411 139.678 139.253 131.409 144.646 126.385C145.706 122.267 146.268 117.942 146.268 113.432C146.268 104.108 144.621 95.7818 141.694 88.4178C135.443 92.5758 133.344 102.014 123.822 102.014C111.61 102.014 111.61 86.4888 99.3978 86.4888C87.1878 86.4888 87.1878 102.014 74.9768 102.014C62.7668 102.014 62.7668 86.4888 50.5578 86.4888C38.3518 86.4888 38.3518 102.014 26.1468 102.014C15.1088 102.014 14.0488 89.3248 4.9238 86.8918C3.2088 91.2178 1.89081 96.0468 1.15281 101.506C-0.163195 111.244 0.642771 119.789 3.00577 127.234C7.86477 132.286 10.8838 139.678 19.7168 139.678Z" fill="#F5F5F5"/>
<path d="M26.1469 102.013C38.3529 102.013 38.3529 86.4877 50.5579 86.4877C62.7679 86.4877 62.7679 102.013 74.9769 102.013C87.1869 102.013 87.1869 86.4877 99.3979 86.4877C111.61 86.4877 111.61 102.013 123.822 102.013C133.344 102.013 135.442 92.5747 141.694 88.4167C131.491 62.7397 105.642 48.8187 78.9869 45.6577V29.3877H58.7589V51.8137C58.7589 51.8137 18.5449 52.5377 4.92285 86.8907C14.0489 89.3237 15.1089 102.013 26.1469 102.013Z" fill="#DC3026"/>
<path d="M127.066 139.678C113.644 139.678 113.644 122.615 100.223 122.615C86.8028 122.615 86.8028 139.678 73.3838 139.678C59.9648 139.678 59.9648 122.615 46.5458 122.615C33.1318 122.615 33.1318 139.678 19.7168 139.678C10.8848 139.678 7.86484 132.286 3.00684 127.233C12.4878 157.105 47.1128 169.225 71.0728 169.225C111.593 169.225 138.071 151.933 144.647 126.385C139.253 131.409 136.411 139.678 127.066 139.678Z" fill="#DC3026"/>
<path d="M54.3419 15.1827H84.2638C84.2638 15.1827 84.2639 40.4177 79.9379 40.4177C77.1919 40.4177 75.3529 34.2897 75.3529 34.2897C75.3529 34.2897 73.3938 42.5817 69.3028 42.5817C66.9318 42.5817 63.3549 33.2087 63.3549 33.2087C63.3549 33.2087 62.9369 41.0407 58.6679 41.0407C53.2609 41.0397 54.3419 15.1827 54.3419 15.1827Z" fill="#018D49"/>
<path d="M11.7369 86.6606L10.7979 86.3146C10.8869 86.0736 20.1249 62.2106 62.2169 54.2556V44.5566H63.2169V55.0856L62.8079 55.1616C20.9179 62.9356 11.8239 86.4246 11.7369 86.6606Z" fill="#010101"/>
<path d="M133.233 86.7066C115.837 51.0496 75.4048 51.3046 74.9958 51.3196L74.4878 51.3276V44.5566H75.4878V50.3236C80.2808 50.4156 117.536 52.2496 134.131 86.2676L133.233 86.7066Z" fill="#010101"/>
<path d="M75.0908 162.504C74.2098 162.504 73.3198 162.492 72.4178 162.468C31.7808 161.353 20.3988 144.381 19.9348 143.659L20.7758 143.117C20.8868 143.29 32.3988 160.368 72.4458 161.468C91.1688 161.976 105.371 156.945 113.98 152.628C123.312 147.948 128.277 143.082 128.327 143.033L129.031 143.744C128.98 143.793 123.929 148.75 114.47 153.501C106.165 157.671 92.7318 162.504 75.0908 162.504Z" fill="#010101"/>
<path d="M20.3558 107.6C15.0738 106.733 15.8128 128.878 20.3558 128.548C24.8988 128.218 27.3558 108.749 20.3558 107.6Z" fill="#018D49"/>
<path d="M73.4828 107.6C68.2008 106.733 68.9388 128.878 73.4828 128.548C78.0258 128.218 80.4818 108.749 73.4828 107.6Z" fill="#018D49"/>
<path d="M126.251 107.345C120.968 106.478 121.707 128.623 126.251 128.293C130.795 127.963 133.251 108.494 126.251 107.345Z" fill="#018D49"/>
</svg>
