<svg width="109" height="140" viewBox="0 0 109 140" fill="none" xmlns="http://www.w3.org/2000/svg">
<path d="M55.557 0.357071C36.381 -0.121929 18.519 7.43608 8.48904 24.3071C-1.17796 40.5651 -2.41796 63.3111 6.74904 80.0001C15.941 96.7351 35.425 102.827 53.349 103.726C68.848 104.503 84.299 100.416 95.31 89.0331C109.26 74.6101 111.899 52.0071 105.212 33.6451C97.5041 12.4811 77.609 0.522071 55.557 0.357071C54.46 0.348071 54.461 2.04808 55.557 2.05608C72.193 2.18208 87.7171 8.81906 97.5181 22.5671C105.899 34.3211 108.694 49.6281 106.125 63.7141C103.488 78.1831 94.4831 90.6481 81.2511 97.1581C63.8291 105.73 39.287 103.491 22.797 93.9001C2.67504 82.1971 -0.976957 56.9801 5.16804 36.2381C11.927 13.4221 32.532 1.48107 55.556 2.05507C56.654 2.08307 56.651 0.384071 55.557 0.357071Z" fill="#2D3853"/>
<path d="M11.5 51.936C14.724 51.936 14.724 46.936 11.5 46.936C8.27603 46.936 8.27603 51.936 11.5 51.936Z" fill="white"/>
<path d="M53.5 15.936C56.724 15.936 56.724 10.936 53.5 10.936C50.276 10.936 50.276 15.936 53.5 15.936Z" fill="white"/>
<path d="M94.25 43.186C97.475 43.186 97.475 38.186 94.25 38.186C91.026 38.186 91.026 43.186 94.25 43.186Z" fill="white"/>
<path d="M22.75 25.061C25.168 25.061 25.168 21.311 22.75 21.311C20.332 21.311 20.332 25.061 22.75 25.061Z" fill="white"/>
<path d="M82 20.561C84.418 20.561 84.418 16.811 82 16.811C79.583 16.811 79.583 20.561 82 20.561Z" fill="white"/>
<path d="M40.5001 25.686C42.4351 25.686 42.4351 22.686 40.5001 22.686C38.5661 22.686 38.5661 25.686 40.5001 25.686Z" fill="white"/>
<path d="M25.5 38.186C27.435 38.186 27.435 35.186 25.5 35.186C23.565 35.186 23.565 38.186 25.5 38.186Z" fill="white"/>
<path d="M71.5001 26.186C73.4351 26.186 73.4351 23.186 71.5001 23.186C69.5661 23.186 69.5661 26.186 71.5001 26.186Z" fill="white"/>
<path d="M79.7501 41.186C81.6851 41.186 81.6851 38.186 79.7501 38.186C77.8161 38.186 77.8161 41.186 79.7501 41.186Z" fill="white"/>
<path d="M96.2501 58.436C98.1851 58.436 98.1851 55.436 96.2501 55.436C94.3161 55.436 94.3161 58.436 96.2501 58.436Z" fill="white"/>
<path d="M92.0001 29.936C93.9351 29.936 93.9351 26.936 92.0001 26.936C90.0661 26.936 90.0661 29.936 92.0001 29.936Z" fill="white"/>
<path d="M67.5001 11.936C69.4351 11.936 69.4351 8.93604 67.5001 8.93604C65.5661 8.93604 65.5661 11.936 67.5001 11.936Z" fill="white"/>
<path d="M36.5001 12.186C38.4351 12.186 38.4351 9.18604 36.5001 9.18604C34.5661 9.18604 34.5661 12.186 36.5001 12.186Z" fill="white"/>
<path d="M13 36.686C14.935 36.686 14.935 33.686 13 33.686C11.065 33.686 11.065 36.686 13 36.686Z" fill="white"/>
<path d="M19.554 61.2491C25.965 53.5571 50.305 23.2632 55.528 23.2752C65.948 23.3002 75.323 45.8651 80.452 54.8391C84.938 62.5311 91.989 65.7362 86.862 71.5062C81.733 77.9162 67.63 77.2762 61.22 77.2762C46.477 77.2752 26.605 77.2751 19.554 61.2491Z" fill="#2D3853"/>
<path d="M37.25 36.9362C40 32.4362 48.25 23.6862 53 22.1862C60 20.1862 64.75 26.6862 68.5 31.4362C70.5 33.9362 80.5 45.1862 70.75 42.6862C67.25 41.9362 65.75 34.9362 62.75 38.6862C60.5 41.4362 63.5 45.6862 58.25 46.4362C50.5 47.4362 55.5 34.9362 47.25 39.4362C44.5 40.9362 41.75 45.4362 37.75 43.6862C35.25 42.4362 34.5 39.2902 37.25 36.9362Z" fill="white"/>
<path d="M88.567 65.3392C79.792 67.1002 70.999 70.4202 61.948 70.3482C50.109 70.2522 42.141 62.6032 31.364 59.2292C23.585 56.7932 16.162 57.4502 9.24103 60.0592C11.81 83.2432 29.592 95.8412 57.258 95.8412C81.057 95.8412 94.848 81.7182 99.062 64.8202C95.829 64.4102 92.336 64.5832 88.567 65.3392Z" fill="white"/>
<path d="M26.5 65.0613C26.5 66.8873 26.5 68.7133 26.5 70.5393" stroke="#2D3853" stroke-width="4" stroke-miterlimit="10"/>
<path d="M26.291 66.4423C29.625 66.4423 33.255 66.5233 36.739 66.1993C35.716 64.5383 34.322 63.0983 33.604 61.3483C34.189 61.4143 34.774 61.3143 35.363 61.2873C34.185 59.2873 32.618 56.9403 31.847 54.9473L33.604 54.7983C32.733 53.5073 30.472 50.4753 29.775 49.1013C30.293 49.1663 30.99 49.0443 31.517 48.9793C29.083 46.3103 27.904 44.6403 26.292 41.9463H26.188C24.576 44.6403 23.397 46.3103 20.962 48.9793C21.489 49.0443 22.186 49.1673 22.704 49.1013C22.007 50.4753 19.746 53.5073 18.874 54.7983L20.631 54.9473C19.86 56.9403 18.293 59.2873 17.115 61.2873C17.704 61.3133 18.289 61.4143 18.874 61.3483C18.156 63.0983 16.762 64.5373 15.739 66.1993C19.223 66.5233 22.853 66.4423 26.187 66.4423" fill="#6183B3"/>
<path d="M54.6251 77.7942C54.6251 79.9252 54.6251 81.7512 54.6251 83.5772" stroke="#2D3853" stroke-width="4" stroke-miterlimit="10"/>
<path d="M54.1561 78.6952C57.4911 78.6952 61.12 78.7762 64.604 78.4522C63.581 76.7912 62.186 75.3512 61.469 73.6012C62.053 73.6672 62.639 73.5672 63.228 73.5402C62.05 71.5402 60.483 69.1932 59.711 67.2002L61.469 67.0512C60.598 65.7602 58.3361 62.7282 57.6391 61.3542C58.1571 61.4192 58.854 61.2972 59.381 61.2322C56.946 58.5632 55.768 56.8932 54.155 54.1992H54.051C52.439 56.8932 51.26 58.5632 48.825 61.2322C49.352 61.2972 50.049 61.4202 50.567 61.3542C49.87 62.7282 47.608 65.7602 46.737 67.0512L48.495 67.2002C47.724 69.1932 46.156 71.5402 44.979 73.5402C45.567 73.5662 46.153 73.6672 46.737 73.6012C46.02 75.3512 44.6261 76.7902 43.6021 78.4522C47.0861 78.7762 50.715 78.6952 54.05 78.6952" fill="#6183B3"/>
<path d="M83 68.7134C83 70.5384 83 72.0604 83 73.8864" stroke="#2D3853" stroke-width="4" stroke-miterlimit="10"/>
<path d="M82.792 69.6474C86.126 69.6474 89.756 69.7284 93.239 69.4044C92.216 67.7434 90.822 66.3034 90.104 64.5534C90.688 64.6194 91.274 64.5194 91.864 64.4934C90.686 62.4934 89.119 60.1464 88.347 58.1534L90.104 58.0034C89.233 56.7124 86.971 53.6804 86.274 52.3064C86.792 52.3714 87.489 52.2494 88.016 52.1844C85.582 49.5154 84.403 47.8454 82.791 45.1514H82.687C81.075 47.8454 79.896 49.5154 77.46 52.1844C77.987 52.2494 78.685 52.3724 79.202 52.3064C78.505 53.6804 76.244 56.7124 75.373 58.0034L77.13 58.1534C76.359 60.1464 74.792 62.4934 73.614 64.4934C74.203 64.5194 74.788 64.6204 75.373 64.5534C74.655 66.3034 73.261 67.7434 72.237 69.4044C75.721 69.7284 79.351 69.6474 82.686 69.6474" fill="#6183B3"/>
<path d="M56.372 100.138C78.009 99.7061 82.872 94.1301 88.526 96.9571C93.827 99.7831 91.3521 107.91 84.9931 108.617C84.6391 110.384 86.407 115.683 86.761 117.45C87.113 118.863 88.1731 123.81 88.8801 124.517C88.8801 124.517 93.12 125.223 94.886 127.343C98.419 132.643 94.1811 134.763 89.2341 135.822C78.2811 138.297 69.093 139.356 56.021 139.356H55.91C42.838 139.356 33.651 138.296 22.698 135.822C17.752 134.762 13.512 132.642 17.045 127.343C18.812 125.223 23.052 124.517 23.052 124.517C23.759 123.81 24.819 118.863 25.172 117.45C25.526 115.683 27.292 110.384 26.939 108.617C20.579 107.91 18.106 99.7831 23.406 96.9571C29.059 94.1301 33.923 99.7061 55.56 100.138" fill="#2D3853"/>
<path d="M27.107 109.839C46.318 112.962 65.559 112.615 84.726 109.339C85.805 109.154 85.346 107.517 84.275 107.7C65.415 110.923 46.463 111.272 27.56 108.2C26.487 108.026 26.027 109.665 27.107 109.839Z" fill="#6183B3"/>
<path d="M23.107 125.006C43.286 133.024 68.624 132.204 88.892 124.839C89.914 124.468 89.473 122.824 88.441 123.2C68.437 130.469 43.476 131.28 23.56 123.367C22.54 122.962 22.102 124.607 23.107 125.006Z" fill="#6183B3"/>
<path d="M54.375 111.686C54.375 117.478 54.392 123.27 54.5 129.061C54.515 129.866 55.765 129.868 55.75 129.061C55.642 123.27 55.625 117.478 55.625 111.686C55.625 110.88 54.375 110.88 54.375 111.686Z" fill="#6183B3"/>
<path d="M39.5001 111.311C38.8791 116.749 38.3731 122.203 37.0231 127.52C36.8241 128.301 38.0301 128.633 38.2281 127.852C39.6061 122.426 40.1171 116.859 40.7501 111.311C40.8421 110.511 39.5911 110.52 39.5001 111.311Z" fill="#6183B3"/>
<path d="M70.7501 110.811C71.0971 116.457 71.8541 122.056 72.3751 127.686C72.4491 128.482 73.6991 128.489 73.6251 127.686C73.1041 122.056 72.3471 116.457 72.0001 110.811C71.9511 110.01 70.7011 110.005 70.7501 110.811Z" fill="#6183B3"/>
<path d="M62 111.436C62.25 117.309 62.482 123.182 62.5 129.061C62.503 129.867 63.753 129.868 63.75 129.061C63.732 123.182 63.5 117.309 63.25 111.436C63.216 110.633 61.966 110.629 62 111.436Z" fill="#6183B3"/>
<path d="M78.148 109.977C78.798 112.617 79.279 115.284 79.745 117.961C80.201 120.593 81.1131 123.26 81.1261 125.936C81.1301 126.742 82.3801 126.743 82.3761 125.936C82.3641 123.48 81.584 121.166 81.149 118.766C80.596 115.712 80.096 112.66 79.353 109.645C79.161 108.863 77.955 109.195 78.148 109.977Z" fill="#6183B3"/>
<path d="M47.375 111.561C47.417 117.427 46.55 123.222 46.125 129.061C46.066 129.866 47.317 129.86 47.375 129.061C47.8 123.222 48.667 117.427 48.625 111.561C48.62 110.755 47.37 110.754 47.375 111.561Z" fill="#6183B3"/>
<path d="M32.75 110.311C32.178 115.621 30.699 120.77 30 126.061C29.895 126.858 31.146 126.848 31.25 126.061C31.949 120.77 33.428 115.623 34 110.311C34.086 109.51 32.835 109.518 32.75 110.311Z" fill="#6183B3"/>
</svg>
