<svg width="175" height="163" viewBox="0 0 175 163" fill="none" xmlns="http://www.w3.org/2000/svg">
<path d="M102.589 101.851C99.956 101.567 97.45 103.464 97.004 106.079C96.558 108.695 98.337 111.054 100.97 111.338C103.602 111.622 106.107 109.725 106.553 107.109C107 104.493 105.221 102.134 102.589 101.851Z" fill="#FB7321"/>
<path d="M101.095 128.016C98.4621 127.732 95.9561 129.629 95.5101 132.244C95.0641 134.86 96.8432 137.219 99.4762 137.503C102.109 137.787 104.615 135.89 105.061 133.274C105.508 130.659 103.729 128.299 101.095 128.016Z" fill="#FB7321"/>
<path d="M156.031 60.3949C156.246 60.3169 156.454 60.1849 156.64 59.9719C157.12 59.4249 157.593 58.8729 158.055 58.3139C161.425 58.2329 164.572 56.8499 167.16 54.6939C169.957 52.3639 172.031 49.3379 174.049 46.3449C174.502 45.6739 174.428 44.7509 173.757 44.2439C173.137 43.7749 172.111 43.8619 171.656 44.5359C169.863 47.1949 168.053 49.9409 165.62 52.0659C164.147 53.3529 162.376 54.4509 160.466 54.9929C161.103 53.9429 161.645 52.8359 162.042 51.6399C163.191 48.1779 163.973 44.5719 164.897 41.0449C165.102 40.2609 164.44 39.4379 163.687 39.3019C162.838 39.1479 162.15 39.7249 161.944 40.5119C161.08 43.8079 160.352 47.1789 159.31 50.4239C158.417 53.2069 156.63 55.4159 154.744 57.5799C154.69 57.5349 154.637 57.4889 154.583 57.4449C154.66 57.2789 154.706 57.0979 154.7 56.9069C154.516 51.0869 154.65 45.2619 155.101 39.4569C155.251 37.5309 152.255 37.3779 152.105 39.3029C151.701 44.5049 151.565 49.7229 151.671 54.9389C151.54 54.8259 151.408 54.7119 151.277 54.5989C149.283 52.8769 147.288 51.1549 145.293 49.4319C144.68 48.9019 143.663 49.0919 143.19 49.7089C142.672 50.3829 142.851 51.2809 143.466 51.8119C145.149 53.2649 146.832 54.7179 148.515 56.1709C149.356 56.8979 150.198 57.6239 151.039 58.3509C151.444 58.7009 151.849 59.0509 152.254 59.3999C152.441 59.5609 152.628 59.7229 152.815 59.8839C152.857 59.9199 152.929 59.9949 152.999 60.0549C152.901 60.3479 152.799 60.8239 152.766 60.9199C152.618 61.3599 152.466 61.7979 152.309 62.2339C152.006 63.0759 151.687 63.9119 151.352 64.7409C150.693 66.3689 149.972 67.9709 149.191 69.5439C146.049 75.8689 141.897 81.6879 136.989 86.7649C135.548 88.2549 134.028 89.6699 132.448 91.0149C130.755 89.4359 129 88.0019 127.285 86.7829C127.263 80.9129 127.242 75.0439 127.22 69.1739C133.138 59.5329 133.003 50.2009 126.053 41.6889C119.632 33.8249 110.588 26.1359 99.4851 26.5149C99.1081 26.5279 98.7231 26.5629 98.3411 26.5919C98.3451 26.5899 98.3501 26.5879 98.3541 26.5859C99.6741 25.9319 101.022 25.2409 102.024 24.1589C103.025 23.0769 103.612 21.4999 103.105 20.1999C102.837 19.5119 102.21 18.9299 101.448 18.9199C100.876 18.9129 100.334 19.2159 99.8321 19.5179C98.3971 20.3799 96.9981 21.3139 95.6051 22.2579C93.0821 23.5959 90.5431 24.9009 87.9961 26.1909C87.7111 18.2319 87.0541 10.3079 86.0021 2.45689C85.9211 1.85389 85.8041 1.1909 85.3171 0.836895C84.9901 0.599895 84.5531 0.548896 84.1351 0.571896C83.1861 0.623896 82.2721 1.00789 81.3931 1.41089C77.3751 3.25289 73.5801 5.62088 70.1471 8.42988C69.6221 8.85988 69.0511 9.42389 69.1311 10.0669C69.1681 10.3639 69.3431 10.6159 69.5131 10.8569C73.7951 16.9039 78.0771 22.9509 82.3601 28.9979C78.7581 30.7589 75.1371 32.4769 71.4891 34.1339C71.7881 35.7039 72.5801 37.6539 74.2191 37.4739C74.5791 37.4349 74.9231 37.2849 75.2591 37.1379C75.5451 37.0129 75.8311 36.8869 76.1171 36.7609C74.8121 38.0719 73.6471 39.4819 72.6821 40.9869C67.2901 49.3969 70.4981 60.8389 75.4841 68.2489C74.5521 72.9279 72.2741 81.8189 74.0091 86.1839C72.2271 87.1409 70.4261 88.0829 68.6601 89.0709L65.7991 90.7469C61.9161 93.1509 58.3771 95.9729 55.8341 99.9479C55.3721 100.67 54.9361 101.404 54.5131 102.144C48.9261 99.8089 43.6671 96.7499 38.8661 93.0319C35.5641 90.4589 32.4911 87.6079 29.7131 84.4749C28.3071 82.8899 26.9761 81.2389 25.7241 79.5299C25.6541 79.4339 25.3231 78.8779 25.0841 78.5529C25.2391 78.3439 25.3581 78.0559 25.4831 77.8539C26.1121 76.8389 26.7401 75.8229 27.3691 74.8079C28.7991 72.4969 30.2301 70.1869 31.6601 67.8759C32.0861 67.1879 32.0721 66.3009 31.3841 65.7729C30.7911 65.3179 29.7091 65.3569 29.2811 66.0489C27.9161 68.2549 26.5501 70.4599 25.1851 72.6659C25.0601 72.8679 24.9351 73.0699 24.8101 73.2719C23.3251 68.2059 21.6041 63.2099 19.6371 58.3099C19.3351 57.5579 18.2851 57.3199 17.6151 57.6669C16.8391 58.0689 16.6691 58.9339 16.9721 59.6889C19.0941 64.9719 20.9171 70.3679 22.4491 75.8519C22.5181 76.0979 22.6441 76.3159 22.8041 76.4999C22.7581 76.5719 22.7131 76.6439 22.6691 76.7159C20.2291 75.2209 17.8801 73.6399 16.1981 71.2669C14.1881 68.4319 12.4471 65.3779 10.6001 62.4349C9.5711 60.7949 7.0891 62.4809 8.1141 64.1139C9.1021 65.6879 10.0901 67.2629 11.0781 68.8369C12.0221 70.3409 12.9231 71.8899 13.9811 73.3179C14.7101 74.3019 15.5411 75.1619 16.4351 75.9449C14.3951 76.0059 12.3281 75.4659 10.4841 74.6309C7.60309 73.3259 5.1161 71.3099 2.6601 69.3509C1.1481 68.1449 -0.658905 70.5399 0.851095 71.7439C3.62009 73.9529 6.4541 76.1849 9.7401 77.5799C12.9071 78.9249 16.4271 79.3629 19.7441 78.3979C20.3901 78.8179 21.0481 79.2249 21.7111 79.6289C21.8851 79.7349 22.0771 79.7859 22.2721 79.7919C22.4551 80.1439 22.6751 80.4849 22.9131 80.8179C20.6801 82.1669 17.8831 82.4159 15.3441 82.1309C12.0931 81.7659 9.0081 80.4939 5.9941 79.2909C5.2421 78.9909 4.3421 79.4989 4.0951 80.2359C3.8251 81.0409 4.28509 81.8339 5.04009 82.1359C8.42709 83.4869 11.8841 84.8359 15.5501 85.1659C18.7781 85.4559 21.9831 84.8579 24.7431 83.1699C25.2671 83.8369 25.7911 84.5049 26.3401 85.1519C27.8641 86.9499 29.4841 88.6629 31.1731 90.3049C33.0331 92.1139 34.9951 93.8139 37.0421 95.4089C41.9591 99.2169 47.3691 102.388 53.0991 104.803C49.2081 112.714 47.7551 121.382 50.8511 129.56C54.1521 138.276 61.1761 145.378 67.9501 151.52C76.2741 159.068 85.6911 162.605 97.2911 162.747C107.717 162.874 120.439 161.396 129.87 155.96C137.212 151.729 140.698 144.175 142.372 136.408C144.542 126.343 145.518 113.192 141.766 103.688C140.395 100.215 137.953 96.7579 135.103 93.6699L134.572 93.1309C138.751 89.5299 142.516 85.4409 145.75 80.9769C147.982 77.8969 149.968 74.6309 151.69 71.2389C152.813 69.0259 153.844 66.7309 154.727 64.3899C158.048 65.2339 161.524 64.6679 164.629 63.2779C167.831 61.8449 170.597 59.5959 173.297 57.3959C174.795 56.1749 172.819 53.9179 171.323 55.1369C167.041 58.6269 161.615 62.9859 155.705 61.5489C155.78 61.3079 155.869 61.0699 155.939 60.8289C155.979 60.6849 156.005 60.5399 156.031 60.3949ZM24.8581 78.3109C25.0201 78.3169 25.0481 78.3899 25.0311 78.4759C24.9541 78.3779 24.8911 78.3119 24.8581 78.3109ZM110.554 44.5499C110.774 43.2629 112.002 42.3319 113.299 42.4719C114.595 42.6119 115.468 43.7689 115.248 45.0559C115.028 46.3429 113.8 47.2739 112.504 47.1339C111.207 46.9949 110.334 45.8369 110.554 44.5499ZM106.898 52.6769C106.95 52.6379 107.002 52.5979 107.055 52.5579C108.599 51.3889 110.302 53.6449 108.757 54.8149C108.705 54.8549 108.653 54.8939 108.6 54.9339C107.056 56.1029 105.354 53.8469 106.898 52.6769ZM104.394 55.6559C104.439 55.6609 104.483 55.6659 104.528 55.6699C106.393 55.8709 105.905 58.7499 104.037 58.5489C103.992 58.5439 103.948 58.5389 103.903 58.5339C102.038 58.3339 102.526 55.4549 104.394 55.6559ZM100.383 34.4859C100.695 33.7459 101.779 33.7889 101.948 34.5449C102.261 35.9469 102.469 37.3309 102.563 37.8149C102.95 39.8179 103.32 41.9129 103.342 43.9789C103.358 45.5249 103.382 47.5489 101.44 48.0929C96.3161 49.5279 97.8481 41.8079 98.6461 39.3569C98.9281 38.5569 99.5811 36.3889 100.383 34.4859ZM98.1481 58.9089C98.1031 58.9039 98.0591 58.8999 98.0141 58.8949C96.1491 58.6939 96.6371 55.8149 98.5051 56.0159C98.5501 56.0209 98.5941 56.0259 98.6391 56.0299C100.504 56.2319 100.016 59.1109 98.1481 58.9089ZM93.8711 56.9819C93.8261 56.9769 93.7821 56.9719 93.7371 56.9679C91.8721 56.7669 92.3611 53.8879 94.2281 54.0889C94.2731 54.0939 94.3171 54.0989 94.3621 54.1029C96.2271 54.3049 95.7391 57.1839 93.8711 56.9819ZM90.4511 50.4059C90.4961 50.4109 90.5401 50.4159 90.5851 50.4199C92.4501 50.6209 91.9621 53.4999 90.0941 53.2989C90.0491 53.2939 90.0051 53.2889 89.9601 53.2839C88.0961 53.0839 88.5841 50.2049 90.4511 50.4059ZM86.6661 46.1779C85.3701 46.0379 84.4971 44.8809 84.7171 43.5939C84.9371 42.3059 86.1651 41.3759 87.4611 41.5159C88.7571 41.6559 89.6301 42.8129 89.4101 44.0999C89.1911 45.3869 87.9621 46.3169 86.6661 46.1779ZM62.2351 125.11C60.1941 124.538 58.3101 123.67 57.6051 122.558C55.2921 118.905 59.7591 113.929 61.5541 110.789C65.4831 103.917 69.4121 97.0439 73.3401 90.1719C73.4441 89.9899 73.4991 89.8159 73.5231 89.6519C74.3001 89.2319 75.0791 88.8129 75.8601 88.3879C76.9951 88.9409 78.4651 88.8849 80.2981 88.9729C81.2241 90.7049 82.0441 92.4629 82.7861 94.2769C79.5941 95.6639 76.4031 97.0499 73.2111 98.4359C72.2471 98.8549 72.0831 99.8879 72.5321 100.665C73.9121 103.053 75.3701 104.945 74.6781 107.756C74.0181 110.44 73.1401 110.282 70.6591 111.43C68.7901 112.295 65.2761 113.136 63.8701 114.69C61.7181 117.067 62.3371 121.563 62.2351 125.11ZM84.1631 108.923C81.0811 114.613 74.9261 125.044 68.1061 125.849C67.4081 125.931 66.3821 125.885 65.2421 125.731C65.9171 121.101 65.7511 117.661 70.4731 114.639C72.4711 113.36 75.8491 113.046 77.3751 111.133C80.0221 107.813 77.7841 103.675 75.8391 100.389C78.9691 99.0289 82.1001 97.6689 85.2301 96.3099C85.9791 95.9839 86.3591 95.1159 86.0861 94.3969C85.4021 92.5939 84.6401 90.8689 83.7871 89.1719C86.0791 89.3029 88.3731 89.4129 90.6691 89.4959C89.5571 96.2459 87.4971 102.768 84.1631 108.923ZM107.96 133.586C107.243 137.79 103.217 140.837 98.9861 140.381C94.7551 139.925 91.8961 136.134 92.6131 131.931C93.3301 127.728 97.3561 124.68 101.587 125.137C105.817 125.593 108.677 129.384 107.96 133.586ZM109.452 107.421C108.735 111.624 104.71 114.673 100.479 114.216C96.2481 113.76 93.3891 109.97 94.1061 105.766C94.8231 101.563 98.8491 98.5149 103.08 98.9709C107.311 99.4279 110.169 103.218 109.452 107.421ZM92.8701 86.6909C88.5091 86.5509 78.9401 87.9059 76.9161 83.1579C76.1881 81.4509 76.3851 78.6779 76.8561 75.8539C79.9561 78.6909 83.6701 82.1169 84.0531 82.5469L84.4571 82.9999L85.1671 83.0629C85.9691 83.0669 86.4991 83.0709 92.9031 75.9029L101.845 81.3849C103.003 82.0969 104.586 81.8139 105.522 80.7279L109.584 76.0239L115.72 82.4109C116.694 83.4259 118.365 83.4809 119.528 82.5339L124.33 78.6129C124.339 81.1469 124.349 83.6809 124.358 86.2139C113.842 86.8239 103.342 87.0279 92.8701 86.6909ZM124.511 74.8149L117.828 80.2719L111.676 73.8679C111.141 73.3139 110.376 73.0259 109.58 73.0709C108.782 73.1179 108.02 73.4989 107.488 74.1149L103.405 78.8429L94.4661 73.3629C93.3151 72.6529 91.7791 72.9109 90.8231 73.9779C88.2191 76.8939 86.4061 78.7929 85.4401 79.7119C83.8211 78.1629 80.4981 75.1139 77.5311 72.4059C77.7731 71.2989 78.0131 70.2619 78.2131 69.3499C87.3141 69.5719 96.4141 69.7929 105.515 70.0149C111.066 70.1499 116.617 70.2849 122.168 70.4199C122.4 70.4259 124.321 70.3079 125.11 70.4049C125.154 70.4269 125.194 70.4559 125.24 70.4729C124.914 70.8199 124.666 73.0079 124.511 74.8149Z" fill="#FB7321"/>
</svg>
